<svg width="80" height="80" viewBox="0 0 80 80" fill="none" xmlns="http://www.w3.org/2000/svg">
<g clip-path="url(#clip0_373_7642)">
<path d="M51.2941 12.8055V11.5072C51.2941 5.28224 46.2482 0.233978 40.0209 0.233978C33.7936 0.233978 28.7477 5.2799 28.7477 11.5072V12.8055L40.0185 24.0904L51.2941 12.8055Z" fill="#F9E44A"/>
<path d="M69.3794 26.425C71.5784 23.4471 72.1258 19.634 71.0193 16.2396C72.1164 19.6269 71.5713 23.4377 69.3794 26.425Z" fill="#F8E349"/>
<path d="M28.7477 67.2439V68.5328C28.7477 74.7578 33.7936 79.806 40.0209 79.806C46.2482 79.806 51.2941 74.7601 51.2941 68.5328V67.2485L40.0185 55.973L28.7477 67.2439Z" fill="#F9E44A"/>
<path d="M68.2495 52.3237C70.39 54.4642 71.4965 57.2456 71.5714 60.0458C71.5059 57.2479 70.411 54.4712 68.2752 52.3354L67.2343 51.2944H67.2202L68.2495 52.3237Z" fill="#F8E349"/>
<path opacity="0.41" d="M71.0216 16.2396C70.4906 14.6044 69.5806 13.0652 68.2822 11.7668C67.6904 11.175 67.0494 10.6674 66.3734 10.2346C67.0471 10.6674 67.688 11.175 68.2776 11.7645C69.5782 13.0652 70.4906 14.6044 71.0216 16.2396Z" fill="#E7C220"/>
<path opacity="0.41" d="M27.8283 68.1539H27.826C27.7862 68.1913 27.7488 68.2357 27.7067 68.2755C23.3041 72.6781 16.1668 72.6781 11.7642 68.2755C9.05294 65.5642 8.01428 61.8143 8.64356 58.3053C8.00025 61.8283 9.03189 65.5876 11.7478 68.3036C16.1504 72.7062 23.3041 72.6898 27.7278 68.2662L28.7477 67.2462V67.2369L27.8283 68.1562V68.1539Z" fill="#E7C220"/>
<path opacity="0.41" d="M67.2366 28.748H67.2459L68.2448 27.7491C68.6636 27.3303 69.0402 26.8882 69.3794 26.425C69.0496 26.8718 68.6799 27.3023 68.2752 27.707L67.2343 28.748H67.2366Z" fill="#E7C220"/>
<path d="M52.3023 11.8066L40.0186 24.0904L44.6761 28.748H67.2459H67.2366L68.2776 27.707C68.6823 27.3023 69.0495 26.8718 69.3817 26.425C71.5737 23.4377 72.1211 19.627 71.0216 16.2396C70.4882 14.6044 69.5759 13.0652 68.2776 11.7645C67.6881 11.175 67.0494 10.6673 66.3734 10.2346C62.0082 7.45078 56.1318 7.97479 52.3023 11.8043V11.8066Z" fill="#F8E349"/>
<path d="M35.3376 51.2944H12.8146L11.7853 52.3237C10.0893 54.0197 9.04363 56.1181 8.6436 58.3077C8.01433 61.8166 9.05299 65.5666 11.7643 68.2779C16.1669 72.6805 23.3041 72.6805 27.7067 68.2779C27.7465 68.2381 27.7863 68.1936 27.8261 68.1539H27.8284L28.7477 67.2392V67.2486L40.0186 55.9777L35.3376 51.2967V51.2944Z" fill="#F8E349"/>
<path opacity="0.41" d="M68.2753 68.2755C63.8727 72.6781 56.7354 72.6781 52.3328 68.2755L51.2918 67.2345V67.2485L52.3071 68.2638C56.7307 72.6875 63.8844 72.7038 68.287 68.3012C70.5585 66.0297 71.6509 63.0261 71.5714 60.0411C71.6392 63.012 70.5444 66.0064 68.2753 68.2732V68.2755Z" fill="#E7C220"/>
<path d="M67.2202 51.2944H44.6972L40.0162 55.9754L51.2918 67.2509V67.2369L52.3328 68.2779C56.7354 72.6805 63.8726 72.6805 68.2752 68.2779C70.5421 66.011 71.6392 63.0167 71.5714 60.0458C71.4965 57.2456 70.39 54.4665 68.2495 52.3237L67.2202 51.2944Z" fill="#F8E349"/>
<path d="M35.361 28.748L40.0185 24.0904L27.7348 11.8066C24.2796 8.35143 19.1588 7.58413 14.9831 9.51173C13.8181 10.0521 12.728 10.803 11.7665 11.7645C9.33833 14.1927 8.25288 17.4514 8.50319 20.6259C8.50787 20.6914 8.51255 20.7592 8.51723 20.8247C8.52191 20.8691 8.52892 20.9136 8.5336 20.9557C8.64589 21.992 8.90088 23.019 9.3009 23.9992C9.30792 24.0179 9.31728 24.0366 9.32429 24.0553C9.38512 24.2027 9.44828 24.3501 9.51612 24.4951C9.5863 24.6448 9.65882 24.7922 9.73601 24.9396C9.74303 24.9536 9.74771 24.9653 9.75473 24.9793C10.2717 25.9595 10.9408 26.8812 11.7665 27.707C11.8063 27.7491 11.8508 27.7865 11.8905 27.8263H11.8882L12.8075 28.748H12.7935H35.3633H35.361Z" fill="#F8E349"/>
<path opacity="0.41" d="M52.3024 11.8066L40.0186 24.0904L44.6762 28.748H67.246H67.2366L68.2776 27.707C68.6823 27.3023 69.0496 26.8718 69.3818 26.425C71.5737 23.4377 72.1211 19.627 71.0217 16.2396C70.4883 14.6044 69.576 13.0652 68.2776 11.7645C67.6881 11.175 67.0495 10.6673 66.3734 10.2346C62.0082 7.45078 56.1319 7.97479 52.3024 11.8043V11.8066Z" fill="#E7C220"/>
<path opacity="0.41" d="M35.3376 51.2944H12.8146L11.7853 52.3237C10.0893 54.0197 9.04363 56.1181 8.6436 58.3077C8.01433 61.8166 9.05299 65.5666 11.7643 68.2779C16.1669 72.6805 23.3041 72.6805 27.7067 68.2779C27.7465 68.2381 27.7863 68.1936 27.8261 68.1539H27.8284L28.7477 67.2392V67.2486L40.0186 55.9777L35.3376 51.2967V51.2944Z" fill="#E7C220"/>
<path opacity="0.41" d="M67.2202 51.2944H44.6972L40.0162 55.9754L51.2918 67.2509V67.2369L52.3328 68.2779C56.7354 72.6805 63.8726 72.6805 68.2752 68.2779C70.5421 66.011 71.6392 63.0167 71.5714 60.0458C71.4965 57.2456 70.39 54.4665 68.2495 52.3237L67.2202 51.2944Z" fill="#E7C220"/>
<path opacity="0.41" d="M35.3611 28.748L40.0187 24.0904L27.7349 11.8066C24.2798 8.35143 19.159 7.58413 14.9833 9.51173C13.8183 10.0521 12.7282 10.803 11.7667 11.7645C9.33851 14.1927 8.25307 17.4514 8.50337 20.6259C8.50805 20.6914 8.51273 20.7592 8.51741 20.8247C8.52209 20.8691 8.52911 20.9136 8.53379 20.9557C8.64607 21.992 8.90106 23.019 9.30108 23.9992C9.3081 24.0179 9.31746 24.0366 9.32448 24.0553C9.3853 24.2027 9.44846 24.3501 9.5163 24.4951C9.58648 24.6448 9.659 24.7922 9.7362 24.9396C9.74321 24.9536 9.74789 24.9653 9.75491 24.9793C10.2719 25.9595 10.9409 26.8812 11.7667 27.707C11.8065 27.7491 11.8509 27.7865 11.8907 27.8263H11.8884L12.8077 28.748H12.7937H35.3635H35.3611Z" fill="#E7C220"/>
<path d="M40.0186 55.9754L44.6996 51.2944H35.3376L40.0186 55.9754Z" fill="#F8E349"/>
<path opacity="0.41" d="M40.0186 55.9754L44.6996 51.2944H35.3376L40.0186 55.9754Z" fill="#E7C220"/>
<path opacity="0.41" d="M40.0186 55.9754L44.6996 51.2944H35.3376L40.0186 55.9754Z" fill="#E7C220"/>
<path d="M40.0186 24.0904L35.361 28.748H44.6761L40.0186 24.0904Z" fill="#F8E349"/>
<path opacity="0.41" d="M40.0186 24.0904L35.361 28.748H44.6761L40.0186 24.0904Z" fill="#E7C220"/>
<path opacity="0.41" d="M40.0186 24.0904L35.361 28.748H44.6761L40.0186 24.0904Z" fill="#E7C220"/>
<path d="M68.5349 28.748H67.2459L55.9611 40.0329L67.2226 51.2944H67.2366H68.5349C74.7599 51.2944 79.8081 46.2484 79.8081 40.0212C79.8081 33.7939 74.7622 28.748 68.5349 28.748Z" fill="#F7D33B"/>
<path d="M24.0761 40.0329L12.7912 28.748H11.5069C5.28196 28.748 0.233704 33.7939 0.233704 40.0212C0.233704 41.5768 0.549512 43.0599 1.12031 44.4097C1.26301 44.7466 1.42208 45.0764 1.59519 45.3946C3.50408 48.9083 7.22828 51.2944 11.5069 51.2944H12.8052H12.8146L24.0761 40.0329Z" fill="#F7D33B"/>
<path d="M12.8146 51.2944H35.3376L24.0761 40.0329L12.8146 51.2944Z" fill="#F8E349"/>
<path opacity="0.41" d="M12.8146 51.2944H35.3376L24.0761 40.0329L12.8146 51.2944Z" fill="#E7C220"/>
<path d="M55.961 40.0329L67.2436 28.748H44.6761L55.961 40.0329Z" fill="#F8E349"/>
<path opacity="0.41" d="M55.961 40.0329L67.2436 28.748H44.6761L55.961 40.0329Z" fill="#E7C220"/>
<path d="M67.2202 51.2944L55.9611 40.0329L44.6996 51.2944H67.2202Z" fill="#F8E349"/>
<path opacity="0.41" d="M67.2202 51.2944L55.9611 40.0329L44.6996 51.2944H67.2202Z" fill="#E7C220"/>
<path d="M12.7912 28.748L24.0761 40.0329L35.361 28.748H12.7912Z" fill="#F8E349"/>
<path opacity="0.41" d="M12.7912 28.748L24.0761 40.0329L35.361 28.748H12.7912Z" fill="#E7C220"/>
<path opacity="0.44" d="M12.8146 51.2943H35.3376L24.0761 40.0328L12.8146 51.2943Z" fill="#EDBA1C"/>
<path opacity="0.44" d="M55.961 40.0329L67.2436 28.748H44.6761L55.961 40.0329Z" fill="#EDBA1C"/>
<path opacity="0.44" d="M67.2202 51.2943L55.961 40.0328L44.6995 51.2943H67.2202Z" fill="#EDBA1C"/>
<path opacity="0.44" d="M12.7912 28.748L24.0761 40.0329L35.361 28.748H12.7912Z" fill="#EDBA1C"/>
<path d="M35.3609 28.748L24.076 40.0329L35.3376 51.2944H44.6995L55.961 40.0329L44.6761 28.748H35.3609Z" fill="#F8E349"/>
<path opacity="0.41" d="M35.3609 28.748L24.076 40.0329L35.3376 51.2944H44.6995L55.961 40.0329L44.6761 28.748H35.3609Z" fill="#E7C220"/>
<path opacity="0.41" d="M35.3609 28.748L24.076 40.0329L35.3376 51.2944H44.6995L55.961 40.0329L44.6761 28.748H35.3609Z" fill="#E7C220"/>
<path opacity="0.44" d="M35.3609 28.748L24.076 40.0329L35.3376 51.2944H44.6995L55.961 40.0329L44.6761 28.748H35.3609Z" fill="#E7B121"/>
<path d="M39.4534 36.3777C38.5615 31.8265 34.5458 28.6698 30.4823 29.3285C26.4188 29.9871 23.8476 34.2106 24.7394 38.7633C25.1208 40.712 26.0762 42.4036 27.3618 43.6518C28.2801 43.3498 29.2126 43.0847 30.1538 42.855C29.8006 42.2927 29.5375 41.6469 29.3998 40.9465C28.8735 38.2798 30.3286 35.8106 32.6509 35.4315C34.9731 35.0523 37.283 36.9062 37.8092 39.573C37.9629 40.3521 37.947 41.1152 37.7898 41.814C38.1413 41.8028 38.4944 41.7931 38.8459 41.7915C39.5787 40.2172 39.833 38.3296 39.4516 36.3809L39.4534 36.3777Z" fill="white"/>
<path d="M38.272 39.2613C37.6733 36.2267 35.0438 34.1174 32.4019 34.5495C29.76 34.9817 28.1036 37.7914 28.7022 40.826C28.8594 41.6244 29.1596 42.357 29.5605 42.998C32.3966 42.3072 35.3122 41.9104 38.249 41.8124C38.4274 41.0172 38.4468 40.1497 38.272 39.2629V39.2613Z" fill="#101010"/>
<path d="M40.9838 36.3777C41.8756 31.8265 45.8914 28.6698 49.9549 29.3285C54.0184 29.9871 56.5896 34.2106 55.6978 38.7633C55.3164 40.712 54.361 42.4036 53.0754 43.6518C52.1571 43.3498 51.2246 43.0847 50.2834 42.855C50.6366 42.2927 50.8997 41.6469 51.0374 40.9465C51.5637 38.2798 50.1085 35.8106 47.7863 35.4315C45.4641 35.0523 43.1542 36.9062 42.6279 39.573C42.4743 40.3521 42.4902 41.1152 42.6474 41.814C42.2959 41.8028 41.9427 41.7931 41.5913 41.7915C40.8585 40.2172 40.6042 38.3296 40.9856 36.3809L40.9838 36.3777Z" fill="white"/>
<path d="M42.047 39.2469C42.6456 36.2122 45.2752 34.1029 47.917 34.5351C50.5589 34.9672 52.2154 37.777 51.6167 40.8116C51.4595 41.61 51.1593 42.3426 50.7585 42.9835C47.9223 42.2928 45.0067 41.896 42.0699 41.798C41.8916 41.0028 41.8722 40.1353 42.047 39.2485V39.2469Z" fill="#101010"/>
<path fill-rule="evenodd" clip-rule="evenodd" d="M40.1625 49.7676C42.5782 49.7713 44.6873 48.4542 45.8066 46.4939C45.9987 46.1573 46.4274 46.0402 46.764 46.2324C47.1006 46.4246 47.2176 46.8532 47.0255 47.1898C45.6663 49.5704 43.1011 51.1757 40.1603 51.1712C37.2193 51.1667 34.6597 49.5513 33.3093 47.1671C33.1182 46.8299 33.2368 46.4016 33.574 46.2106C33.9113 46.0196 34.3395 46.1382 34.5306 46.4754C35.6426 48.4388 37.7471 49.7639 40.1625 49.7676Z" fill="#101010"/>
<circle cx="35.3235" cy="37.8971" r="0.935729" fill="white"/>
<circle cx="48.8917" cy="37.8971" r="0.935729" fill="white"/>
</g>
<defs>
<clipPath id="clip0_373_7642">
<rect width="79.5744" height="79.5744" fill="white" transform="translate(0.233704 0.233948)"/>
</clipPath>
</defs>
</svg>
