<svg width="80" height="80" viewBox="0 0 80 80" fill="none" xmlns="http://www.w3.org/2000/svg">
<path d="M39.8936 42.1186H4.63629V59.333H39.8936V42.1186Z" fill="#475BC1"/>
<path fill-rule="evenodd" clip-rule="evenodd" d="M4.63623 38.6067C4.63623 18.759 20.4299 2.66682 39.9133 2.66682C59.3967 2.66682 75.1904 18.759 75.1882 38.6067H4.63623ZM4.63623 42.1164V38.6067H75.1882V42.1164H4.63623Z" fill="#556FF8"/>
<path d="M22.266 77.3755C32.0027 77.3755 39.8958 69.4825 39.8958 59.746C39.8958 50.0094 32.0027 42.1164 22.266 42.1164C12.5294 42.1164 4.63629 50.0094 4.63629 59.746C4.63629 69.4825 12.5294 77.3755 22.266 77.3755Z" fill="#4C62D4"/>
<path d="M39.8934 42.1186C39.8934 61.5908 55.6959 77.3755 75.1903 77.3755V42.1186H39.8934Z" fill="#384690"/>
<path fill-rule="evenodd" clip-rule="evenodd" d="M42.0199 33.0796C42.9124 31.952 44.2778 31.2111 45.8277 31.1635C48.6165 31.0778 50.9468 33.2691 51.0324 36.058C51.0415 36.3525 51.0251 36.6419 50.9853 36.9241C49.5175 37.6601 47.7679 37.8329 46.0888 37.2677C44.0602 36.5848 42.601 34.9816 42.0199 33.0796Z" fill="#101010"/>
<path fill-rule="evenodd" clip-rule="evenodd" d="M54.1726 33.2557C54.6158 31.9391 54.6052 30.5791 54.2252 29.3457L44.3994 26.0379C43.3508 26.7904 42.5199 27.8672 42.0767 29.1838C41.6352 30.4953 41.644 31.8499 42.0197 33.0796C42.9122 31.952 44.2776 31.2111 45.8276 31.1635C48.6164 31.0778 50.9466 33.2692 51.0323 36.058C51.0413 36.3525 51.0249 36.6419 50.9852 36.9241C52.4372 36.1961 53.6134 34.9168 54.1726 33.2557Z" fill="white"/>
<circle cx="0.935729" cy="0.935729" r="0.935729" transform="matrix(-1 0 0 1 45.6165 32.7098)" fill="white"/>
<path fill-rule="evenodd" clip-rule="evenodd" d="M37.9454 33.0796C37.0529 31.952 35.6875 31.2111 34.1375 31.1635C31.3487 31.0778 29.0185 33.2691 28.9328 36.058C28.9238 36.3525 28.9401 36.6419 28.9799 36.9241C30.4477 37.6601 32.1974 37.8329 33.8765 37.2676C35.9051 36.5847 37.3642 34.9816 37.9454 33.0796Z" fill="#101010"/>
<path fill-rule="evenodd" clip-rule="evenodd" d="M25.7926 33.2557C25.3494 31.9391 25.36 30.5791 25.74 29.3457L35.5658 26.0379C36.6144 26.7904 37.4453 27.8672 37.8885 29.1838C38.33 30.4954 38.3212 31.85 37.9455 33.0797C37.0529 31.952 35.6875 31.2111 34.1376 31.1635C31.3487 31.0778 29.0185 33.2692 28.9329 36.058C28.9238 36.3525 28.9402 36.6419 28.9799 36.9241C27.528 36.196 26.3518 34.9168 25.7926 33.2557Z" fill="white"/>
<circle cx="35.2844" cy="33.6455" r="0.935729" fill="white"/>
</svg>
