<svg width="80" height="80" viewBox="0 0 80 80" fill="none" xmlns="http://www.w3.org/2000/svg">
<g clip-path="url(#clip0_373_7647)">
<path d="M74.6653 28.6587V5.32797H52.3126V28.6587V56.5056C65.0983 53.6894 74.6653 42.2904 74.6653 28.6587Z" fill="#3BE780"/>
<path d="M5.32776 52.02V74.6655H74.6653V52.02H62.3574" fill="#23C464"/>
<path d="M55.5273 27.6807C52.7111 14.895 41.3141 5.32802 27.6805 5.32802H5.32776V27.6807H27.6805H48.3923V33.5043H52.3105V27.6807H55.5253H55.5273Z" fill="#3BE780"/>
<path d="M5.32776 52.02C5.32776 36.2717 18.0952 23.5062 33.8415 23.5062C49.5879 23.5062 62.3553 36.2737 62.3553 52.02" fill="#29B762"/>
<path opacity="0.7" d="M62.4061 52.0891C69.8157 46.9386 74.6653 38.366 74.6653 28.6587V25.2325C73.6872 17.0157 69.2159 9.87253 62.7783 5.32797H52.3126V28.6587V52.02" fill="#34B769"/>
<path opacity="0.7" d="M52.3126 52.02H62.3574C62.3574 43.3172 58.4594 35.5274 52.3126 30.2976" fill="#29A55B"/>
<path d="M33.9839 70.3714C37.6493 70.3714 40.6207 67.4 40.6207 63.7346C40.6207 60.0692 37.6493 57.0978 33.9839 57.0978C30.3185 57.0978 27.3471 60.0692 27.3471 63.7346C27.3471 67.4 30.3185 70.3714 33.9839 70.3714Z" fill="white"/>
<path d="M37.1336 63.5527C36.9389 63.1283 36.6558 62.7473 36.3021 62.4336L36.0102 62.1743C36.0002 62.1657 35.9883 62.1596 35.9754 62.1566C35.9625 62.1535 35.949 62.1535 35.9362 62.1567C35.9233 62.1599 35.9114 62.1661 35.9016 62.1747C35.8917 62.1834 35.8842 62.1942 35.8798 62.2063L35.7494 62.5687C35.6681 62.796 35.5186 63.0281 35.307 63.2564C35.2929 63.271 35.2769 63.2749 35.2659 63.2759C35.2548 63.2768 35.2378 63.2749 35.2227 63.2613C35.2087 63.2496 35.2017 63.2321 35.2027 63.2147C35.2398 62.6299 35.0592 61.9702 34.664 61.2524C34.337 60.6559 33.8826 60.1906 33.3148 59.8661L32.9006 59.6301C32.8464 59.599 32.7772 59.6398 32.7802 59.701L32.8023 60.1673C32.8173 60.4859 32.7792 60.7676 32.6889 61.0017C32.5786 61.2883 32.4201 61.5545 32.2175 61.7934C32.0764 61.9595 31.9166 62.1097 31.741 62.2413C31.318 62.5562 30.974 62.9597 30.7349 63.4216C30.4963 63.8875 30.3721 64.4005 30.3718 64.9205C30.3718 65.379 30.4651 65.823 30.6496 66.2417C30.8278 66.6448 31.085 67.0106 31.407 67.319C31.732 67.6298 32.1091 67.8746 32.5294 68.0446C32.9648 68.2214 33.4262 68.3108 33.9027 68.3108C34.3791 68.3108 34.8405 68.2214 35.2759 68.0456C35.6952 67.8766 36.0764 67.6301 36.3984 67.32C36.7234 67.0091 36.9781 66.6458 37.1557 66.2426C37.34 65.8251 37.4345 65.3756 37.4335 64.9215C37.4335 64.4474 37.3332 63.987 37.1336 63.5527Z" fill="black"/>
<circle cx="32.5005" cy="64.5938" r="0.936994" fill="white"/>
<path d="M46.1648 70.3714C49.8302 70.3714 52.8016 67.4 52.8016 63.7346C52.8016 60.0692 49.8302 57.0978 46.1648 57.0978C42.4994 57.0978 39.528 60.0692 39.528 63.7346C39.528 67.4 42.4994 70.3714 46.1648 70.3714Z" fill="white"/>
<path d="M49.3145 63.5527C49.1198 63.1282 48.8367 62.7473 48.483 62.4336L48.1911 62.1742C48.1812 62.1657 48.1692 62.1596 48.1563 62.1565C48.1434 62.1535 48.1299 62.1535 48.1171 62.1567C48.1042 62.1599 48.0923 62.166 48.0825 62.1747C48.0726 62.1833 48.0652 62.1942 48.0607 62.2063L47.9303 62.5686C47.849 62.796 47.6995 63.0281 47.4879 63.2564C47.4739 63.271 47.4578 63.2749 47.4468 63.2758C47.4357 63.2768 47.4187 63.2749 47.4036 63.2613C47.3896 63.2496 47.3826 63.2321 47.3836 63.2146C47.4207 62.6298 47.2401 61.9702 46.8449 61.2523C46.5179 60.6559 46.0635 60.1906 45.4958 59.8661L45.0815 59.63C45.0273 59.599 44.9581 59.6398 44.9611 59.701L44.9832 60.1672C44.9982 60.4859 44.9601 60.7676 44.8698 61.0017C44.7595 61.2883 44.601 61.5545 44.3984 61.7934C44.2574 61.9595 44.0975 62.1097 43.9219 62.2413C43.4989 62.5562 43.1549 62.9597 42.9158 63.4216C42.6772 63.8875 42.553 64.4004 42.5527 64.9205C42.5527 65.379 42.646 65.823 42.8305 66.2416C43.0087 66.6448 43.2659 67.0106 43.5879 67.319C43.9129 67.6298 44.29 67.8746 44.7103 68.0446C45.1457 68.2214 45.6071 68.3108 46.0836 68.3108C46.56 68.3108 47.0215 68.2214 47.4568 68.0456C47.8761 67.8766 48.2573 67.6301 48.5793 67.3199C48.9043 67.0091 49.159 66.6458 49.3366 66.2426C49.5209 65.8251 49.6154 65.3755 49.6145 64.9215C49.6145 64.4474 49.5141 63.9869 49.3145 63.5527Z" fill="black"/>
<circle cx="44.6814" cy="64.5938" r="0.936994" fill="white"/>
</g>
<defs>
<clipPath id="clip0_373_7647">
<rect width="69.3375" height="69.3375" fill="white" transform="translate(5.32776 5.32802)"/>
</clipPath>
</defs>
</svg>
