<svg width="342" height="342" viewBox="0 0 342 342" fill="none" xmlns="http://www.w3.org/2000/svg">
<path opacity="0.5" d="M220.464 219.52C222.787 218.715 225.062 217.794 227.278 216.73C233.031 213.989 238.29 210.279 242.945 205.879C236.453 211.669 228.823 216.251 220.435 219.27C220.435 219.357 220.455 219.443 220.464 219.529V219.52Z" fill="#F667AC"/>
<path d="M196.949 87.9573C196.949 87.9573 196.969 87.9573 196.988 87.9573C196.988 87.5068 196.949 87.0563 196.949 86.5962C196.949 48.6468 228.149 17.877 266.628 17.877C271.4 17.877 276.056 18.3563 280.556 19.2478C275.327 17.8099 270 16.6788 264.674 15.7394C219.226 7.80256 172.291 8.18599 126.979 16.8801C120.263 50.9473 118.455 85.9443 121.527 120.51C127.699 118.363 134.191 117.136 140.742 116.8C153.154 99.3546 173.691 87.9477 196.94 87.9477L196.949 87.9573Z" fill="#DD549C"/>
<path opacity="0.5" d="M265.582 155.651C265.582 157.606 265.475 159.533 265.31 161.45C265.572 159.399 265.738 157.347 265.806 155.306C265.728 155.306 265.65 155.306 265.572 155.306C265.572 155.421 265.572 155.536 265.572 155.66L265.582 155.651Z" fill="#F667AC"/>
<path opacity="0.5" d="M121.526 120.52C119.203 121.325 116.929 122.245 114.713 123.309C108.959 126.05 103.701 129.76 99.0454 134.16C105.538 128.37 113.168 123.788 121.556 120.769C121.556 120.683 121.536 120.596 121.526 120.51V120.52Z" fill="#F667AC"/>
<path d="M145.047 252.082C144.328 252.082 143.609 252.053 142.899 252.025C142.928 252.839 142.958 253.645 142.958 254.459C142.958 291.843 112.225 322.153 74.3191 322.153C70.5577 322.153 66.8838 321.846 63.2876 321.271C67.914 322.479 72.6182 323.456 77.3224 324.281C122.77 332.218 169.705 331.834 215.017 323.14C221.733 289.073 223.541 254.076 220.47 219.51C214.298 221.657 207.805 222.884 201.255 223.22C188.843 240.666 168.306 252.073 145.057 252.073L145.047 252.082Z" fill="#DD549C"/>
<path opacity="0.5" d="M201.278 223.191C201.278 223.191 201.259 223.22 201.249 223.229C207.8 222.894 214.292 221.667 220.464 219.52C220.464 219.433 220.445 219.347 220.435 219.261C214.399 221.427 207.965 222.779 201.268 223.181L201.278 223.191Z" fill="#F667AC"/>
<path opacity="0.5" d="M201.278 223.191C201.278 223.191 201.259 223.22 201.249 223.229C207.8 222.894 214.292 221.667 220.464 219.52C220.464 219.433 220.445 219.347 220.435 219.261C214.399 221.427 207.965 222.779 201.268 223.181L201.278 223.191Z" fill="#F667AC"/>
<path opacity="0.5" d="M140.712 116.858C140.712 116.858 140.732 116.829 140.742 116.82C134.191 117.155 127.698 118.382 121.526 120.529C121.526 120.615 121.546 120.702 121.556 120.788C127.591 118.622 134.026 117.27 140.722 116.868L140.712 116.858Z" fill="#F667AC"/>
<path opacity="0.5" d="M140.712 116.858C140.712 116.858 140.732 116.829 140.742 116.82C134.191 117.155 127.698 118.382 121.526 120.529C121.526 120.615 121.546 120.702 121.556 120.788C127.591 118.622 134.026 117.27 140.722 116.868L140.712 116.858Z" fill="#F667AC"/>
<path opacity="0.5" d="M76.4772 186.833C112.565 187.935 141.617 216.481 142.9 252.034C143.619 252.053 144.328 252.092 145.048 252.092C168.296 252.092 188.834 240.675 201.245 223.239C199.904 223.306 198.553 223.344 197.202 223.344C197.114 223.344 197.027 223.344 196.939 223.344C196.104 223.344 195.277 223.316 194.451 223.287C194.451 223.287 194.442 223.287 194.432 223.287C189.242 223.105 184.188 222.357 179.357 221.101C164.71 217.401 151.355 209.196 142.54 196.917C136.494 189.172 132.111 180.113 129.914 170.24C128.194 164.489 126.872 158.594 125.813 152.708C123.918 142.135 122.508 131.486 121.546 120.798C113.158 123.807 105.538 128.399 99.0359 134.189C86.8381 145.72 78.7709 162.064 76.6716 178.618C76.5063 180.535 76.3994 182.462 76.3994 184.417C76.3994 185.232 76.4286 186.047 76.4577 186.852L76.4772 186.833Z" fill="#F667AC"/>
<path d="M76.4772 186.833C112.565 187.935 141.617 216.481 142.9 252.034C143.619 252.053 144.328 252.092 145.048 252.092C168.296 252.092 188.834 240.675 201.245 223.239C199.904 223.306 198.553 223.344 197.202 223.344C197.114 223.344 197.027 223.344 196.939 223.344C196.104 223.344 195.277 223.316 194.451 223.287C194.451 223.287 194.442 223.287 194.432 223.287C189.242 223.105 184.188 222.357 179.357 221.101C164.71 217.401 151.355 209.196 142.54 196.917C136.494 189.172 132.111 180.113 129.914 170.24C128.194 164.489 126.872 158.594 125.813 152.708C123.918 142.135 122.508 131.486 121.546 120.798C113.158 123.807 105.538 128.399 99.0359 134.189C86.8381 145.72 78.7709 162.064 76.6716 178.618C76.5063 180.535 76.3994 182.462 76.3994 184.417C76.3994 185.232 76.4286 186.047 76.4577 186.852L76.4772 186.833Z" fill="#F667AC"/>
<path opacity="0.5" d="M201.248 223.229C201.248 223.229 201.268 223.201 201.278 223.191C199.927 223.277 198.576 223.325 197.205 223.335C198.556 223.335 199.897 223.306 201.248 223.229Z" fill="#F667AC"/>
<path opacity="0.5" d="M201.248 223.229C201.248 223.229 201.268 223.201 201.278 223.191C199.927 223.277 198.576 223.325 197.205 223.335C198.556 223.335 199.897 223.306 201.248 223.229Z" fill="#F667AC"/>
<path opacity="0.5" d="M201.248 223.229C201.248 223.229 201.268 223.201 201.278 223.191C199.927 223.277 198.576 223.325 197.205 223.335C198.556 223.335 199.897 223.306 201.248 223.229Z" fill="#F667AC"/>
<path opacity="0.5" d="M140.713 116.858C134.016 117.27 127.582 118.612 121.546 120.778C122.508 131.466 123.917 142.125 125.813 152.689C126.882 158.584 128.194 164.469 129.914 170.221C128.865 165.524 128.301 160.645 128.301 155.641C128.301 141.205 132.898 127.833 140.703 116.848L140.713 116.858Z" fill="#F667AC"/>
<path opacity="0.5" d="M140.713 116.858C134.016 117.27 127.582 118.612 121.546 120.778C122.508 131.466 123.917 142.125 125.813 152.689C126.882 158.584 128.194 164.469 129.914 170.221C128.865 165.524 128.301 160.645 128.301 155.641C128.301 141.205 132.898 127.833 140.703 116.848L140.713 116.858Z" fill="#F667AC"/>
<path d="M140.713 116.858C134.016 117.27 127.582 118.612 121.546 120.778C122.508 131.466 123.917 142.125 125.813 152.689C126.882 158.584 128.194 164.469 129.914 170.221C128.865 165.524 128.301 160.645 128.301 155.641C128.301 141.205 132.898 127.833 140.703 116.848L140.713 116.858Z" fill="#F667AC"/>
<path opacity="0.5" d="M142.554 196.907C151.369 209.186 164.724 217.392 179.371 221.092C164.529 217.219 151.661 208.573 142.554 196.907Z" fill="#F667AC"/>
<path opacity="0.5" d="M142.554 196.907C151.369 209.186 164.724 217.392 179.371 221.092C164.529 217.219 151.661 208.573 142.554 196.907Z" fill="#F667AC"/>
<path opacity="0.5" d="M142.554 196.907C151.369 209.186 164.724 217.392 179.371 221.092C164.529 217.219 151.661 208.573 142.554 196.907Z" fill="#F667AC"/>
<path opacity="0.5" d="M142.958 254.469C142.958 253.654 142.928 252.839 142.899 252.034C106.811 250.932 77.7599 222.386 76.4769 186.833C75.7577 186.814 75.0482 186.775 74.3289 186.775C69.1193 186.775 64.0652 187.37 59.1861 188.453C48.5336 191.146 38.338 196.15 29.814 202.965C15.1572 215.302 5.82655 233.601 5.7002 254.066C5.75851 263.786 7.82875 273.506 11.7845 282.344C11.9789 282.756 12.1539 283.178 12.3483 283.58C12.4163 283.734 12.4941 283.877 12.5718 284.031C15.925 290.837 20.4057 297.01 25.7708 302.301C25.7902 302.32 25.7999 302.33 25.8194 302.349C25.9749 302.502 26.1401 302.646 26.3053 302.799C29.2114 305.493 32.4091 307.918 35.8984 309.998C44.3251 315.251 53.6557 318.759 63.2974 321.261C66.8936 321.836 70.5772 322.143 74.3289 322.143C112.235 322.143 142.967 291.834 142.967 254.45L142.958 254.469Z" fill="#F667AC"/>
<path d="M142.958 254.469C142.958 253.654 142.928 252.839 142.899 252.034C106.811 250.932 77.7599 222.386 76.4769 186.833C75.7577 186.814 75.0482 186.775 74.3289 186.775C69.1193 186.775 64.0652 187.37 59.1861 188.453C48.5336 191.146 38.338 196.15 29.814 202.965C15.1572 215.302 5.82655 233.601 5.7002 254.066C5.75851 263.786 7.82875 273.506 11.7845 282.344C11.9789 282.756 12.1539 283.178 12.3483 283.58C12.4163 283.734 12.4941 283.877 12.5718 284.031C15.925 290.837 20.4057 297.01 25.7708 302.301C25.7902 302.32 25.7999 302.33 25.8194 302.349C25.9749 302.502 26.1401 302.646 26.3053 302.799C29.2114 305.493 32.4091 307.918 35.8984 309.998C44.3251 315.251 53.6557 318.759 63.2974 321.261C66.8936 321.836 70.5772 322.143 74.3289 322.143C112.235 322.143 142.967 291.834 142.967 254.45L142.958 254.469Z" fill="#F667AC"/>
<path opacity="0.5" d="M76.4771 186.833C77.76 222.376 106.811 250.931 142.899 252.034C141.617 216.49 112.565 187.935 76.4771 186.833Z" fill="#F667AC"/>
<path opacity="0.5" d="M76.4771 186.833C77.76 222.376 106.811 250.931 142.899 252.034C141.617 216.49 112.565 187.935 76.4771 186.833Z" fill="#F667AC"/>
<path d="M76.4771 186.833C77.76 222.376 106.811 250.931 142.899 252.034C141.617 216.49 112.565 187.935 76.4771 186.833Z" fill="#F667AC"/>
<path opacity="0.5" d="M265.854 153.858C265.854 154.338 265.825 154.817 265.805 155.296C266.077 155.296 266.349 155.315 266.622 155.315C299.775 155.315 327.504 132.473 334.551 101.876C333.443 106.688 331.8 111.365 329.594 115.804C318.407 138.627 291.542 153.504 265.844 153.849L265.854 153.858Z" fill="#F667AC"/>
<path opacity="0.5" d="M335.153 98.9998C335.202 98.741 335.25 98.4822 335.299 98.2138C335.425 97.4566 335.552 96.6993 335.649 95.9325C335.688 95.6353 335.727 95.3382 335.766 95.041C335.863 94.3029 335.941 93.5552 336.009 92.8076C336.038 92.4529 336.067 92.0982 336.086 91.7531C336.135 91.063 336.193 90.3728 336.222 89.6827C336.252 88.9446 336.271 88.1969 336.281 87.4492C336.281 87.1425 336.3 86.8453 336.3 86.5386C336.281 63.3894 324.647 42.9433 306.85 30.5012C306.598 30.3478 306.355 30.1753 306.102 30.0219C298.22 25.1045 289.53 21.7208 280.55 19.2477C276.05 18.3466 271.394 17.877 266.622 17.877C228.143 17.877 196.943 48.6467 196.943 86.5961C196.943 87.0466 196.973 87.4971 196.982 87.9572C234.752 87.9764 265.378 118.085 265.572 155.296C265.65 155.296 265.728 155.296 265.805 155.296C265.825 154.817 265.844 154.337 265.854 153.858C291.552 153.513 318.416 138.636 329.604 115.813C331.8 111.375 333.443 106.697 334.56 101.885C334.599 101.713 334.638 101.54 334.677 101.377C334.852 100.591 335.008 99.7955 335.153 99.0094V98.9998Z" fill="#F667AC"/>
<path d="M335.153 98.9998C335.202 98.741 335.25 98.4822 335.299 98.2138C335.425 97.4566 335.552 96.6993 335.649 95.9325C335.688 95.6353 335.727 95.3382 335.766 95.041C335.863 94.3029 335.941 93.5552 336.009 92.8076C336.038 92.4529 336.067 92.0982 336.086 91.7531C336.135 91.063 336.193 90.3728 336.222 89.6827C336.252 88.9446 336.271 88.1969 336.281 87.4492C336.281 87.1425 336.3 86.8453 336.3 86.5386C336.281 63.3894 324.647 42.9433 306.85 30.5012C306.598 30.3478 306.355 30.1753 306.102 30.0219C298.22 25.1045 289.53 21.7208 280.55 19.2477C276.05 18.3466 271.394 17.877 266.622 17.877C228.143 17.877 196.943 48.6467 196.943 86.5961C196.943 87.0466 196.973 87.4971 196.982 87.9572C234.752 87.9764 265.378 118.085 265.572 155.296C265.65 155.296 265.728 155.296 265.805 155.296C265.825 154.817 265.844 154.337 265.854 153.858C291.552 153.513 318.416 138.636 329.604 115.813C331.8 111.375 333.443 106.697 334.56 101.885C334.599 101.713 334.638 101.54 334.677 101.377C334.852 100.591 335.008 99.7955 335.153 99.0094V98.9998Z" fill="#F667AC"/>
<path opacity="0.5" d="M242.955 205.879C255.493 194.712 263.803 179.04 265.319 161.45C263.22 178.005 255.153 194.348 242.955 205.879Z" fill="#F667AC"/>
<path opacity="0.5" d="M265.572 155.296C228.036 154.75 197.712 124.939 196.983 87.9573C196.973 87.9573 196.963 87.9573 196.944 87.9573C173.695 87.9573 153.158 99.3737 140.746 116.81C142.087 116.743 143.438 116.704 144.789 116.704C144.877 116.704 144.964 116.704 145.052 116.704C145.888 116.704 146.714 116.733 147.54 116.762C147.54 116.762 147.55 116.762 147.559 116.762C152.75 116.944 157.804 117.692 162.634 118.948C177.281 122.648 190.636 130.853 199.451 143.122C205.497 150.868 209.88 159.926 212.077 169.809C213.797 175.56 215.109 181.455 216.178 187.341C218.074 197.914 219.483 208.563 220.445 219.251C228.833 216.241 236.453 211.65 242.955 205.86C255.153 194.329 263.22 177.985 265.32 161.431C265.485 159.514 265.592 157.587 265.592 155.632C265.592 155.517 265.592 155.402 265.592 155.277L265.572 155.296Z" fill="#F667AC"/>
<path d="M265.572 155.296C228.036 154.75 197.712 124.939 196.983 87.9573C196.973 87.9573 196.963 87.9573 196.944 87.9573C173.695 87.9573 153.158 99.3737 140.746 116.81C142.087 116.743 143.438 116.704 144.789 116.704C144.877 116.704 144.964 116.704 145.052 116.704C145.888 116.704 146.714 116.733 147.54 116.762C147.54 116.762 147.55 116.762 147.559 116.762C152.75 116.944 157.804 117.692 162.634 118.948C177.281 122.648 190.636 130.853 199.451 143.122C205.497 150.868 209.88 159.926 212.077 169.809C213.797 175.56 215.109 181.455 216.178 187.341C218.074 197.914 219.483 208.563 220.445 219.251C228.833 216.241 236.453 211.65 242.955 205.86C255.153 194.329 263.22 177.985 265.32 161.431C265.485 159.514 265.592 157.587 265.592 155.632C265.592 155.517 265.592 155.402 265.592 155.277L265.572 155.296Z" fill="#F667AC"/>
<path opacity="0.5" d="M144.789 116.714C143.438 116.714 142.097 116.743 140.746 116.82C140.746 116.829 140.727 116.848 140.717 116.858C142.068 116.772 143.419 116.724 144.789 116.714Z" fill="#F667AC"/>
<path opacity="0.5" d="M144.789 116.714C143.438 116.714 142.097 116.743 140.746 116.82C140.746 116.829 140.727 116.848 140.717 116.858C142.068 116.772 143.419 116.724 144.789 116.714Z" fill="#F667AC"/>
<path opacity="0.5" d="M144.789 116.714C143.438 116.714 142.097 116.743 140.746 116.82C140.746 116.829 140.727 116.848 140.717 116.858C142.068 116.772 143.419 116.724 144.789 116.714Z" fill="#F667AC"/>
<path opacity="0.5" d="M199.442 143.132C190.626 130.853 177.272 122.647 162.625 118.957C177.466 122.83 190.335 131.476 199.442 143.132Z" fill="#F667AC"/>
<path opacity="0.5" d="M199.442 143.132C190.626 130.853 177.272 122.647 162.625 118.957C177.466 122.83 190.335 131.476 199.442 143.132Z" fill="#F667AC"/>
<path opacity="0.5" d="M199.442 143.132C190.626 130.853 177.272 122.647 162.625 118.957C177.466 122.83 190.335 131.476 199.442 143.132Z" fill="#F667AC"/>
<path opacity="0.5" d="M201.278 223.191C207.975 222.779 214.409 221.437 220.445 219.271C219.483 208.583 218.073 197.924 216.178 187.36C215.109 181.465 213.797 175.579 212.077 169.828C213.126 174.525 213.69 179.395 213.69 184.408C213.69 198.844 209.093 212.216 201.288 223.201L201.278 223.191Z" fill="#F667AC"/>
<path opacity="0.5" d="M201.278 223.191C207.975 222.779 214.409 221.437 220.445 219.271C219.483 208.583 218.073 197.924 216.178 187.36C215.109 181.465 213.797 175.579 212.077 169.828C213.126 174.525 213.69 179.395 213.69 184.408C213.69 198.844 209.093 212.216 201.288 223.201L201.278 223.191Z" fill="#F667AC"/>
<path d="M201.278 223.191C207.975 222.779 214.409 221.437 220.445 219.271C219.483 208.583 218.073 197.924 216.178 187.36C215.109 181.465 213.797 175.579 212.077 169.828C213.126 174.525 213.69 179.395 213.69 184.408C213.69 198.844 209.093 212.216 201.288 223.201L201.278 223.191Z" fill="#F667AC"/>
<path opacity="0.5" d="M212.077 169.818C209.88 159.945 205.497 150.877 199.451 143.132C200.238 144.225 200.997 145.337 201.706 146.487C206.342 153.714 209.627 161.622 212.077 169.809V169.818Z" fill="#F667AC"/>
<path opacity="0.5" d="M212.077 169.818C209.88 159.945 205.497 150.877 199.451 143.132C200.238 144.225 200.997 145.337 201.706 146.487C206.342 153.714 209.627 161.622 212.077 169.809V169.818Z" fill="#F667AC"/>
<path opacity="0.5" d="M212.077 169.818C209.88 159.945 205.497 150.877 199.451 143.132C200.238 144.225 200.997 145.337 201.706 146.487C206.342 153.714 209.627 161.622 212.077 169.809V169.818Z" fill="#F667AC"/>
<path opacity="0.5" d="M147.549 116.771C152.633 116.982 157.706 117.72 162.624 118.957C157.784 117.692 152.739 116.954 147.549 116.771Z" fill="#F667AC"/>
<path opacity="0.5" d="M147.549 116.771C152.633 116.982 157.706 117.72 162.624 118.957C157.784 117.692 152.739 116.954 147.549 116.771Z" fill="#F667AC"/>
<path opacity="0.5" d="M147.549 116.771C152.633 116.982 157.706 117.72 162.624 118.957C157.784 117.692 152.739 116.954 147.549 116.771Z" fill="#F667AC"/>
<path opacity="0.5" d="M145.051 116.705C144.964 116.705 144.877 116.705 144.789 116.705C145.703 116.705 146.616 116.724 147.54 116.762C146.713 116.733 145.887 116.705 145.051 116.705Z" fill="#F667AC"/>
<path opacity="0.5" d="M145.051 116.705C144.964 116.705 144.877 116.705 144.789 116.705C145.703 116.705 146.616 116.724 147.54 116.762C146.713 116.733 145.887 116.705 145.051 116.705Z" fill="#F667AC"/>
<path opacity="0.5" d="M145.051 116.705C144.964 116.705 144.877 116.705 144.789 116.705C145.703 116.705 146.616 116.724 147.54 116.762C146.713 116.733 145.887 116.705 145.051 116.705Z" fill="#F667AC"/>
<path opacity="0.5" d="M196.953 223.335C197.04 223.335 197.127 223.335 197.215 223.335C196.301 223.335 195.388 223.316 194.464 223.277C195.291 223.306 196.117 223.335 196.953 223.335Z" fill="#F667AC"/>
<path opacity="0.5" d="M196.953 223.335C197.04 223.335 197.127 223.335 197.215 223.335C196.301 223.335 195.388 223.316 194.464 223.277C195.291 223.306 196.117 223.335 196.953 223.335Z" fill="#F667AC"/>
<path opacity="0.5" d="M196.953 223.335C197.04 223.335 197.127 223.335 197.215 223.335C196.301 223.335 195.388 223.316 194.464 223.277C195.291 223.306 196.117 223.335 196.953 223.335Z" fill="#F667AC"/>
<path opacity="0.5" d="M129.924 170.23C132.121 180.104 136.504 189.172 142.55 196.907C141.763 195.814 141.004 194.703 140.295 193.552C135.659 186.325 132.374 178.417 129.924 170.23Z" fill="#F667AC"/>
<path opacity="0.5" d="M129.924 170.23C132.121 180.104 136.504 189.172 142.55 196.907C141.763 195.814 141.004 194.703 140.295 193.552C135.659 186.325 132.374 178.417 129.924 170.23Z" fill="#F667AC"/>
<path opacity="0.5" d="M129.924 170.23C132.121 180.104 136.504 189.172 142.55 196.907C141.763 195.814 141.004 194.703 140.295 193.552C135.659 186.325 132.374 178.417 129.924 170.23Z" fill="#F667AC"/>
<path opacity="0.5" d="M194.455 223.277C189.362 223.066 184.298 222.328 179.38 221.092C184.22 222.357 189.265 223.095 194.455 223.277Z" fill="#F667AC"/>
<path opacity="0.5" d="M194.455 223.277C189.362 223.066 184.298 222.328 179.38 221.092C184.22 222.357 189.265 223.095 194.455 223.277Z" fill="#F667AC"/>
<path opacity="0.5" d="M194.455 223.277C189.362 223.066 184.298 222.328 179.38 221.092C184.22 222.357 189.265 223.095 194.455 223.277Z" fill="#F667AC"/>
<path opacity="0.5" d="M128.311 155.651C128.311 160.654 128.874 165.533 129.924 170.23C132.373 178.417 135.658 186.334 140.295 193.552C141.004 194.712 141.762 195.814 142.549 196.907C151.657 208.563 164.525 217.219 179.367 221.092C184.294 222.338 189.358 223.066 194.441 223.277C194.441 223.277 194.451 223.277 194.461 223.277C195.374 223.315 196.288 223.325 197.211 223.335C198.582 223.335 199.933 223.277 201.284 223.191C209.089 212.206 213.686 198.834 213.686 184.398C213.686 179.394 213.122 174.515 212.072 169.818C209.623 161.632 206.338 153.714 201.702 146.497C200.992 145.337 200.234 144.225 199.447 143.142C190.34 131.485 177.471 122.83 162.63 118.967C157.702 117.721 152.638 116.992 147.555 116.781C147.555 116.781 147.545 116.781 147.536 116.781C146.622 116.743 145.708 116.733 144.785 116.724C143.415 116.724 142.064 116.781 140.713 116.867C132.908 127.853 128.311 141.224 128.311 155.66V155.651Z" fill="#F667AC"/>
<path opacity="0.5" d="M128.311 155.651C128.311 160.654 128.874 165.533 129.924 170.23C132.373 178.417 135.658 186.334 140.295 193.552C141.004 194.712 141.762 195.814 142.549 196.907C151.657 208.563 164.525 217.219 179.367 221.092C184.294 222.338 189.358 223.066 194.441 223.277C194.441 223.277 194.451 223.277 194.461 223.277C195.374 223.315 196.288 223.325 197.211 223.335C198.582 223.335 199.933 223.277 201.284 223.191C209.089 212.206 213.686 198.834 213.686 184.398C213.686 179.394 213.122 174.515 212.072 169.818C209.623 161.632 206.338 153.714 201.702 146.497C200.992 145.337 200.234 144.225 199.447 143.142C190.34 131.485 177.471 122.83 162.63 118.967C157.702 117.721 152.638 116.992 147.555 116.781C147.555 116.781 147.545 116.781 147.536 116.781C146.622 116.743 145.708 116.733 144.785 116.724C143.415 116.724 142.064 116.781 140.713 116.867C132.908 127.853 128.311 141.224 128.311 155.66V155.651Z" fill="#F667AC"/>
<path opacity="0.5" d="M128.311 155.651C128.311 160.654 128.874 165.533 129.924 170.23C132.373 178.417 135.658 186.334 140.295 193.552C141.004 194.712 141.762 195.814 142.549 196.907C151.657 208.563 164.525 217.219 179.367 221.092C184.294 222.338 189.358 223.066 194.441 223.277C194.441 223.277 194.451 223.277 194.461 223.277C195.374 223.315 196.288 223.325 197.211 223.335C198.582 223.335 199.933 223.277 201.284 223.191C209.089 212.206 213.686 198.834 213.686 184.398C213.686 179.394 213.122 174.515 212.072 169.818C209.623 161.632 206.338 153.714 201.702 146.497C200.992 145.337 200.234 144.225 199.447 143.142C190.34 131.485 177.471 122.83 162.63 118.967C157.702 117.721 152.638 116.992 147.555 116.781C147.555 116.781 147.545 116.781 147.536 116.781C146.622 116.743 145.708 116.733 144.785 116.724C143.415 116.724 142.064 116.781 140.713 116.867C132.908 127.853 128.311 141.224 128.311 155.66V155.651Z" fill="#F667AC"/>
<path d="M128.311 155.651C128.311 160.654 128.874 165.533 129.924 170.23C132.373 178.417 135.658 186.334 140.295 193.552C141.004 194.712 141.762 195.814 142.549 196.907C151.657 208.563 164.525 217.219 179.367 221.092C184.294 222.338 189.358 223.066 194.441 223.277C194.441 223.277 194.451 223.277 194.461 223.277C195.374 223.315 196.288 223.325 197.211 223.335C198.582 223.335 199.933 223.277 201.284 223.191C209.089 212.206 213.686 198.834 213.686 184.398C213.686 179.394 213.122 174.515 212.072 169.818C209.623 161.632 206.338 153.714 201.702 146.497C200.992 145.337 200.234 144.225 199.447 143.142C190.34 131.485 177.471 122.83 162.63 118.967C157.702 117.721 152.638 116.992 147.555 116.781C147.555 116.781 147.545 116.781 147.536 116.781C146.622 116.743 145.708 116.733 144.785 116.724C143.415 116.724 142.064 116.781 140.713 116.867C132.908 127.853 128.311 141.224 128.311 155.66V155.651Z" fill="#F97DBE"/>
<path opacity="0.5" d="M265.572 155.296C265.377 118.085 234.752 87.9764 196.982 87.9573C197.711 124.939 228.035 154.74 265.572 155.296Z" fill="#F667AC"/>
<path opacity="0.5" d="M265.572 155.296C265.377 118.085 234.752 87.9764 196.982 87.9573C197.711 124.939 228.035 154.74 265.572 155.296Z" fill="#F667AC"/>
<path d="M265.572 155.296C265.377 118.085 234.752 87.9764 196.982 87.9573C197.711 124.939 228.035 154.74 265.572 155.296Z" fill="#F667AC"/>
<path d="M57.1006 278.762C72.6201 284.042 89.4815 275.741 94.7615 260.221C100.042 244.702 91.7408 227.84 76.2212 222.56C60.7017 217.28 43.8403 225.581 38.5603 241.101C33.2803 256.62 41.581 273.482 57.1006 278.762Z" fill="white"/>
<path d="M56.9132 267.369C67.8 271.072 79.6281 265.25 83.332 254.363C87.0359 243.476 81.213 231.648 70.3261 227.944C59.4393 224.24 47.6112 230.063 43.9073 240.95C40.2034 251.837 46.0263 263.665 56.9132 267.369Z" fill="#101010"/>
<path d="M57.4601 245.56C60.9386 246.744 64.718 244.883 65.9015 241.405C67.085 237.926 65.2244 234.147 61.7458 232.963C58.2672 231.78 54.4879 233.64 53.3044 237.119C52.1209 240.597 53.9815 244.377 57.4601 245.56Z" fill="white"/>
<path d="M69.1084 251.067C70.8477 251.658 72.7374 250.728 73.3292 248.989C73.9209 247.25 72.9906 245.36 71.2513 244.768C69.512 244.176 67.6224 245.107 67.0306 246.846C66.4389 248.585 67.3692 250.475 69.1084 251.067Z" fill="white"/>
<path d="M107.636 295.955C123.156 301.235 140.017 292.934 145.297 277.415C150.577 261.895 142.276 245.034 126.757 239.754C111.237 234.474 94.3759 242.774 89.0959 258.294C83.8159 273.814 92.1167 290.675 107.636 295.955Z" fill="white"/>
<path d="M107.507 284.581C118.394 288.285 130.222 282.462 133.926 271.575C137.63 260.688 131.807 248.86 120.92 245.156C110.034 241.452 98.2054 247.275 94.5015 258.162C90.7976 269.049 96.6206 280.877 107.507 284.581Z" fill="#101010"/>
<path d="M107.173 262.473C110.652 263.657 114.431 261.796 115.614 258.318C116.798 254.839 114.937 251.06 111.459 249.876C107.98 248.693 104.201 250.553 103.017 254.032C101.834 257.511 103.694 261.29 107.173 262.473Z" fill="white"/>
<path d="M118.813 267.977C120.552 268.569 122.442 267.638 123.034 265.899C123.625 264.16 122.695 262.27 120.956 261.678C119.217 261.087 117.327 262.017 116.735 263.756C116.143 265.495 117.074 267.385 118.813 267.977Z" fill="white"/>
</svg>
