<svg width="342" height="342" viewBox="0 0 342 342" fill="none" xmlns="http://www.w3.org/2000/svg">
<path fill-rule="evenodd" clip-rule="evenodd" d="M17.1001 171C17.1001 86.0058 86.0058 17.1001 171 17.1001C255.994 17.1001 324.9 86.0058 324.9 171H17.1001ZM17.1541 171V320.785C17.1182 322.152 17.1001 323.524 17.1001 324.9H17.1541H171.054H324.9C324.9 239.924 256.024 171.029 171.054 171C171.036 171 171.018 171 171 171H17.1541Z" fill="#D64949" fill-opacity="0.5"/>
<path d="M171.054 171H17.1538V324.9H171.054V171Z" fill="#8A3636"/>
<path d="M17.1001 171C17.1001 86.0058 86.0058 17.1001 171 17.1001C255.994 17.1001 324.9 86.0058 324.9 171" fill="#D64949" fill-opacity="0.9"/>
<path d="M17.1001 324.9C17.1001 239.906 86.0058 171 171 171C255.994 171 324.9 239.906 324.9 324.9" fill="#943939"/>
<path fill-rule="evenodd" clip-rule="evenodd" d="M171 171C170.967 171 170.933 171 170.9 171C85.9057 171 17 239.906 17 324.9H171V171Z" fill="#AF3F3F"/>
<path d="M102.579 105L165.4 118.036L164.339 123.149C160.739 140.497 143.758 151.641 126.41 148.041C109.063 144.442 97.9183 127.461 101.518 110.113L102.579 105Z" fill="white"/>
<path d="M126.291 109.921L160.886 117.1L160.29 119.971C158.308 129.525 148.957 135.662 139.403 133.68C129.85 131.697 123.713 122.346 125.695 112.793L126.291 109.921Z" fill="#101010"/>
<circle cx="153" cy="121" r="3" fill="white"/>
<path d="M239.82 105L177 118.036L178.061 123.149C181.661 140.497 198.642 151.641 215.989 148.041C233.336 144.442 244.481 127.461 240.881 110.113L239.82 105Z" fill="white"/>
<path d="M216.108 109.921L181.513 117.1L182.109 119.971C184.091 129.525 193.443 135.662 202.996 133.68C212.549 131.697 218.687 122.346 216.704 112.793L216.108 109.921Z" fill="#101010"/>
<circle cx="3" cy="3" r="3" transform="matrix(-1 0 0 1 192.399 118)" fill="white"/>
</svg>
