<svg width="28" height="28" viewBox="0 0 28 28" fill="none" xmlns="http://www.w3.org/2000/svg">
<g clip-path="url(#clip0_172_6409)">
<path d="M27.8494 13.9247C27.8494 11.7461 26.0834 9.9793 23.904 9.9793H23.4496L23.8139 9.61497C25.3547 8.07415 25.3547 5.57626 23.8139 4.03544C22.2731 2.49462 19.7752 2.49462 18.2344 4.03544L17.8701 4.39977V3.94538C17.8701 1.76596 16.1033 0 13.9247 0C11.7461 0 9.9793 1.76596 9.9793 3.94538V4.39977L9.65754 4.07801H9.65672C9.64281 4.06491 9.62971 4.04936 9.61497 4.03544C8.07415 2.49462 5.57626 2.49462 4.03544 4.03544C2.49462 5.57626 2.49462 8.07415 4.03544 9.61497C4.04936 9.62971 4.06491 9.64281 4.07883 9.65672H4.07801L4.39977 9.9793H3.94538C1.76678 9.9793 0 11.7453 0 13.9247C0 16.1041 1.76596 17.8701 3.94538 17.8701H4.39977L4.07801 18.1918H4.07883C4.06409 18.2065 4.04936 18.2205 4.03544 18.2344C2.49462 19.7752 2.49462 22.2731 4.03544 23.8139C5.57626 25.3547 8.07415 25.3547 9.61497 23.8139C9.62889 23.8 9.64281 23.7844 9.65672 23.7705H9.65754L9.9793 23.4504V23.9048C9.9793 26.0834 11.7453 27.8502 13.9247 27.8502C16.1041 27.8502 17.8701 26.0842 17.8701 23.9048V23.4504L18.2344 23.8147C19.7752 25.3556 22.2731 25.3556 23.8139 23.8147C25.3547 22.2739 25.3547 19.776 23.8139 18.2352L23.4496 17.8709H23.904C26.0826 17.8709 27.8494 16.1049 27.8494 13.9255V13.9247Z" fill="#F9E44A"/>
</g>
<defs>
<clipPath id="clip0_172_6409">
<rect width="28" height="28" fill="white"/>
</clipPath>
</defs>
</svg>
