<svg width="190" height="47" viewBox="0 0 190 47" fill="none" xmlns="http://www.w3.org/2000/svg">
<g id="Group 1321318306">
<g id="Group 1321318310">
<path id="Vector" d="M20.6919 9.79903L18.3793 16.59L19.655 16.9184L25.4066 0.119991H41.729V36.9705H28.9948V24.5601L25.2201 36.9705H16.7306L12.9559 24.5601V36.9705H0.0800018V0.127454H17.6706L20.6919 9.79903Z" fill="#1A1A1A"/>
<path id="Vector_2" d="M77.2236 32.7318C77.2236 41.9332 71.1362 46.8362 60.7594 46.8362C55.9477 46.8362 50.5691 46.1795 47.0331 44.9034V34.1423C51.9417 36.4557 58.2081 36.9706 62.1246 35.5602V34.0975C52.0313 36.881 44.34 32.0676 44.34 21.5005V8.19467H59.9015V23.3886L61.6472 22.7244V8.19467H77.2161V32.7318H77.2236Z" fill="#1A1A1A"/>
<path id="Vector_3" d="M105.944 20.9781V37.0228H93.919V20.4109L92.4121 21.0676V37.0153H80.1479V8.18713H89.1073L90.756 9.83638C93.2551 7.85132 94.8142 7.23938 98.022 7.23938C100.476 7.23938 102.311 7.9931 103.587 9.36623C105.944 8.23191 108.914 7.23938 111.98 7.23938C117.448 7.23938 120.141 10.9185 120.141 17.2915V37.0153H107.407V20.4035L105.944 20.9706V20.9781Z" fill="#1A1A1A"/>
<path id="Vector_4" d="M170.995 32.7766C170.995 41.978 166.848 46.881 157.836 46.881C155.62 46.881 153.45 46.269 152.129 45.4183V34.6572C153.494 35.4109 155.195 35.5974 156.09 35.5974C157.836 35.5974 159.723 35.2691 161.141 34.2318L160.76 32.7243C159.201 33.8587 156.941 34.284 154.956 34.0004V0.127544H170.995V6.82899C168.683 8.24689 162.267 9.2842 158.731 9.2842V10.6051C162.267 10.6051 168.444 9.80658 170.995 8.20212V32.784V32.7766Z" fill="#1A1A1A"/>
<path id="Vector_5" d="M189.944 37.0228H173.905V0.127544H189.944V6.82899C187.631 8.24689 181.215 9.2842 177.679 9.2842V10.6051C181.215 10.6051 187.392 9.80658 189.944 8.20212V37.0303V37.0228Z" fill="#1A1A1A"/>
<path id="Vector_6" d="M139.887 36.1049C138.194 36.1049 136.657 35.187 135.836 33.7616C134.956 34.6795 133.733 35.2243 132.435 35.2243C131.629 35.2243 130.823 35.0079 130.122 34.6124C128.787 33.8512 127.914 32.478 127.78 30.9407C127.727 30.3661 127.78 29.799 127.936 29.2542C127.921 29.2542 127.906 29.2542 127.892 29.2542C126.623 29.2542 125.392 28.7243 124.512 27.8064C124.408 27.702 124.311 27.5826 124.214 27.4632C123.826 26.9706 123.542 26.4109 123.378 25.799C122.804 23.702 123.759 21.5453 125.549 20.508C125.482 20.4483 125.415 20.3811 125.355 20.314C125.295 20.2543 125.251 20.202 125.206 20.1498C125.161 20.0975 125.124 20.0453 125.079 19.9931C124.796 19.6199 124.579 19.2393 124.423 18.8364L124.393 18.7617C123.908 17.411 124.027 15.9856 124.714 14.7916C124.99 14.314 125.34 13.8886 125.758 13.5379C126.601 12.8215 127.683 12.4334 128.787 12.4334C129.219 12.4334 129.645 12.4931 130.062 12.6125C130.047 10.5379 131.42 8.62001 133.509 8.04538C133.912 7.93344 134.329 7.88121 134.747 7.88121C136.441 7.88121 137.977 8.79911 138.798 10.2245C139.671 9.30657 140.894 8.76926 142.192 8.76926C142.662 8.76926 143.132 8.84388 143.58 8.97821C143.901 9.07523 144.214 9.21702 144.512 9.38119C145.154 9.74686 145.698 10.2618 146.101 10.8812C146.847 12.023 147.064 13.4334 146.698 14.7319H146.743C148.847 14.7319 150.704 16.1498 151.264 18.1871C151.592 19.396 151.435 20.6572 150.809 21.7468C150.391 22.4781 149.801 23.0751 149.085 23.4781C149.667 24.0378 150.1 24.7393 150.339 25.5303C150.712 26.7691 150.57 28.0751 149.928 29.202C149.1 30.6572 147.541 31.5601 145.855 31.5601C145.422 31.5601 144.99 31.5004 144.579 31.381C144.587 32.2019 144.378 33.0154 143.96 33.7467C143.341 34.8362 142.334 35.6124 141.126 35.9407C140.723 36.0527 140.305 36.1049 139.887 36.1049Z" fill="#F8E349"/>
<path id="Vector_7" d="M134.747 8.69458C136.448 8.69458 138 9.82143 138.47 11.5378L138.589 11.9707L138.835 11.5304C139.552 10.2841 140.85 9.58263 142.192 9.58263C142.573 9.58263 142.961 9.64233 143.334 9.75427C143.595 9.83636 143.856 9.9483 144.102 10.0901C144.647 10.4035 145.087 10.8289 145.408 11.3214C146.079 12.3438 146.243 13.6572 145.788 14.8363C145.721 15.0229 145.631 15.202 145.534 15.3736L145.296 15.7915L145.721 15.6721C146.064 15.5826 146.407 15.5378 146.743 15.5378C148.444 15.5378 149.996 16.6647 150.466 18.3811C151.025 20.4408 149.816 22.5602 147.758 23.1273L147.325 23.2467L147.765 23.493C148.66 24.0079 149.279 24.8288 149.548 25.7467C149.846 26.7243 149.757 27.8213 149.205 28.7765C148.496 30.0228 147.191 30.7168 145.848 30.7168C145.191 30.7168 144.527 30.5526 143.923 30.2019L143.498 29.9556L143.617 30.381C144.177 32.4407 142.968 34.5601 140.909 35.1272C140.566 35.2168 140.223 35.2616 139.887 35.2616C138.186 35.2616 136.635 34.1347 136.165 32.4183L136.045 31.9929L135.799 32.4257C135.083 33.6795 133.77 34.3884 132.427 34.3884C131.778 34.3884 131.122 34.2242 130.525 33.881C129.384 33.2317 128.705 32.075 128.6 30.8586C128.533 30.0974 128.69 29.3138 129.1 28.5974L129.346 28.1646L128.914 28.284C128.571 28.3735 128.227 28.4183 127.892 28.4183C126.832 28.4183 125.825 27.978 125.102 27.2243C125.012 27.1347 124.93 27.0377 124.855 26.9407C124.542 26.5452 124.303 26.0825 124.169 25.5676C123.61 23.5079 124.818 21.3885 126.877 20.8214L127.302 20.702L126.914 20.4781C126.914 20.4781 126.877 20.4557 126.862 20.4482C126.512 20.2467 126.213 20.0079 125.952 19.7318C125.952 19.7318 125.952 19.7243 125.945 19.7169C125.907 19.6721 125.87 19.6348 125.833 19.59C125.795 19.5452 125.766 19.5079 125.728 19.4632C125.728 19.4632 125.721 19.4557 125.713 19.4482C125.49 19.1572 125.318 18.8438 125.184 18.5079C125.184 18.493 125.169 18.4781 125.169 18.4632C125.161 18.4408 125.154 18.4184 125.146 18.396C124.781 17.3662 124.841 16.1945 125.422 15.1721C125.654 14.7692 125.945 14.4184 126.28 14.1348C126.982 13.5453 127.869 13.2244 128.779 13.2244C129.428 13.2244 130.085 13.3886 130.689 13.7319C130.704 13.7393 130.726 13.7542 130.741 13.7617L131.129 13.9781L131.01 13.5453C130.45 11.4856 131.659 9.36621 133.718 8.79905C134.061 8.7095 134.404 8.66472 134.74 8.66472M134.747 7.0528C134.255 7.0528 133.77 7.11996 133.293 7.24682C131.875 7.63488 130.689 8.55278 129.958 9.82889C129.637 10.3961 129.421 11.0005 129.309 11.6274C129.137 11.6125 128.958 11.605 128.787 11.605C127.481 11.605 126.221 12.0677 125.228 12.9035C124.736 13.3214 124.326 13.8139 124.005 14.3811C123.207 15.7841 123.058 17.4557 123.61 18.9781L123.639 19.0676L123.669 19.1423C123.841 19.5676 124.065 19.9781 124.333 20.3587C123.848 20.7691 123.438 21.2617 123.117 21.8288C122.386 23.1049 122.2 24.59 122.588 26.0154C122.782 26.7318 123.117 27.3885 123.572 27.9706C123.684 28.1123 123.804 28.2467 123.923 28.3735C124.744 29.2243 125.818 29.7914 126.974 29.9929C126.944 30.3288 126.937 30.6646 126.974 31.0079C127.131 32.8138 128.16 34.4257 129.727 35.3213C130.555 35.7914 131.495 36.0451 132.45 36.0451C133.636 36.0451 134.777 35.6571 135.71 34.978C136.732 36.1869 138.254 36.9257 139.91 36.9257C140.402 36.9257 140.887 36.8586 141.364 36.7317C143.49 36.1496 144.99 34.3959 145.341 32.3511C145.52 32.366 145.699 32.381 145.878 32.381C147.855 32.381 149.69 31.3213 150.667 29.6049C151.413 28.2989 151.585 26.7243 151.152 25.284C150.973 24.6795 150.689 24.1124 150.331 23.6198C151.905 22.2766 152.666 20.0975 152.084 17.9632C151.517 15.8811 149.779 14.3438 147.705 13.9856C147.825 12.7542 147.519 11.4931 146.825 10.4259C146.355 9.70203 145.706 9.09756 144.96 8.67219C144.617 8.47816 144.244 8.31398 143.863 8.19458C143.334 8.0304 142.789 7.94831 142.23 7.94831C141.044 7.94831 139.91 8.32891 138.985 9.008C137.963 7.79906 136.441 7.06026 134.785 7.06026L134.747 7.0528Z" fill="#1A1A1A"/>
<path id="Vector_8" d="M133.099 27.8736L132.875 26.2392C133.516 26.1497 134.128 26.0079 134.688 25.8064L135.232 27.3586C134.568 27.5974 133.845 27.7691 133.099 27.8661V27.8736ZM136.791 26.6497L135.971 25.2243C136.575 24.8736 137.135 24.4333 137.612 23.9184L138.813 25.0452C138.224 25.6795 137.537 26.2168 136.791 26.6497ZM139.865 23.6945L138.477 22.799C138.85 22.2169 139.171 21.5676 139.425 20.8587L140.976 21.4109C140.678 22.2393 140.305 23.0005 139.865 23.687V23.6945ZM141.439 19.8064L139.835 19.4482C140.104 18.2244 140.111 17.3214 140.111 17.2841H141.76C141.76 17.396 141.752 18.4333 141.446 19.799L141.439 19.8064Z" fill="#1A1A1A"/>
</g>
</g>
</svg>
