<svg width="28" height="28" viewBox="0 0 28 28" fill="none" xmlns="http://www.w3.org/2000/svg">
<path d="M13.9689 0.93335C7.15017 0.93335 1.6228 6.56449 1.6228 13.5116H26.315C26.315 6.56449 20.7876 0.93335 13.9689 0.93335Z" fill="#5B75FF"/>
<path d="M7.79277 27.0798C11.2003 27.0798 13.9627 24.3174 13.9627 20.9098C13.9627 17.5023 11.2003 14.7399 7.79277 14.7399C4.38519 14.7399 1.6228 17.5023 1.6228 20.9098C1.6228 24.3174 4.38519 27.0798 7.79277 27.0798Z" fill="#5B75FF"/>
<path d="M13.962 13.5115H1.6228V20.7653H13.962V13.5115Z" fill="#5B75FF"/>
<path d="M13.962 13.5115V14.8674H13.9674C14.158 21.6446 19.6131 27.0798 26.315 27.0798V13.5115H13.962Z" fill="#5B75FF"/>
</svg>
