<svg width="28" height="28" viewBox="0 0 28 28" fill="none" xmlns="http://www.w3.org/2000/svg">
<path d="M25.9578 11.8397L25.9574 11.84L24.2343 13.3478V14.6447L25.93 16.1968C25.9303 16.1971 25.9306 16.1974 25.931 16.1977C26.2725 16.4975 26.4993 16.9067 26.5726 17.3553C26.6459 17.8041 26.5609 18.2644 26.3323 18.6575C26.3322 18.6577 26.3321 18.6578 26.332 18.658L24.2366 22.3341L24.2363 22.3347C24.0643 22.6325 23.8171 22.8799 23.5193 23.052C23.2217 23.224 22.8841 23.3148 22.5403 23.3153M25.9578 11.8397L18.1648 25.3768L18.6215 23.1201C19.0082 22.9302 19.3831 22.7172 19.744 22.4822L21.9121 23.2168L21.9132 23.2172C22.1155 23.2837 22.3273 23.3168 22.5403 23.3153M25.9578 11.8397C26.3048 11.5338 26.5326 11.1151 26.6007 10.6576C26.6689 10.2004 26.5733 9.73393 26.331 9.34037C26.3308 9.34002 26.3306 9.33967 26.3304 9.33932L24.1627 5.66528C24.1626 5.66508 24.1625 5.66487 24.1624 5.66467C23.9904 5.36711 23.7433 5.11996 23.4458 4.94797C23.1482 4.77593 22.8105 4.68515 22.4668 4.68473M25.9578 11.8397L21.8387 4.78309M22.5403 23.3153C22.5402 23.3153 22.5401 23.3153 22.5399 23.3153L22.5398 23.1927L22.5407 23.3152C22.5406 23.3152 22.5405 23.3153 22.5403 23.3153ZM21.8387 4.78309L21.8396 4.78279C22.042 4.71626 22.2538 4.68315 22.4668 4.68473M21.8387 4.78309L19.6618 5.51769C19.3042 5.28203 18.9322 5.06904 18.548 4.87998L18.0912 2.62314L21.8387 4.78309ZM22.4668 4.68473C22.4669 4.68473 22.467 4.68473 22.4672 4.68473L22.4662 4.8073L22.4664 4.68473C22.4665 4.68473 22.4666 4.68473 22.4668 4.68473ZM6.16348 4.74669L6.1633 4.74718L8.29357 5.51694C8.65417 5.28224 9.0286 5.06951 9.41482 4.87992L9.87155 2.62314C9.96122 2.1717 10.2068 1.76617 10.5653 1.47756C10.9236 1.1892 11.3717 1.03589 11.8315 1.04443H16.1313C16.5911 1.03589 17.0392 1.1892 17.3975 1.47756C17.7559 1.76608 18.0014 2.17144 18.0912 2.6227L6.16348 4.74669ZM6.16348 4.74669L6.15255 4.74385M6.16348 4.74669L6.15255 4.74385M6.15255 4.74385C5.94923 4.69087 5.73872 4.67092 5.52909 4.68474C5.1866 4.68581 4.85033 4.77655 4.55378 4.94797C4.25621 5.11998 4.00907 5.36717 3.83713 5.66476C3.83703 5.66494 3.83693 5.66511 3.83683 5.66528L1.66794 9.34136L1.66758 9.34198M6.15255 4.74385L1.66758 9.34198M1.66758 9.34198C1.4387 9.73517 1.35365 10.1957 1.427 10.6447C1.50027 11.0933 1.72706 11.5024 2.06859 11.8023L3.76525 13.3553V14.6528L2.06977 16.1599C1.71846 16.4618 1.48537 16.8784 1.41182 17.3358C1.33826 17.7934 1.4291 18.2622 1.66825 18.6591C1.66834 18.6593 1.66844 18.6595 1.66853 18.6596L3.83683 22.3347C3.83691 22.3348 3.837 22.335 3.83708 22.3351C4.00902 22.6328 4.25618 22.88 4.55378 23.052C4.85141 23.2241 5.18905 23.3148 5.53283 23.3153M1.66758 9.34198L6.16084 23.2169M6.16084 23.2169L6.15993 23.2172C5.95761 23.2837 5.7458 23.3168 5.53283 23.3153M6.16084 23.2169L8.33776 22.4823M6.16084 23.2169L8.33776 22.4823M5.53283 23.3153C5.53268 23.3153 5.53253 23.3152 5.53238 23.3152L5.53332 23.1927L5.53319 23.3153C5.53307 23.3153 5.53295 23.3153 5.53283 23.3153ZM8.33776 22.4823C8.69533 22.7179 9.06733 22.9309 9.45158 23.12L9.90832 25.3768C9.90832 25.3769 9.90833 25.3769 9.90833 25.3769C9.99801 25.8283 10.2436 26.2338 10.6021 26.5224C10.9603 26.8108 11.4085 26.9641 11.8682 26.9556H16.2049C16.6646 26.9641 17.1128 26.8108 17.471 26.5224C17.8294 26.2339 18.075 25.8285 18.1647 25.3773L8.33776 22.4823ZM19.3524 20.1717L19.2869 20.1495L19.234 20.1942C18.5065 20.8094 17.6757 21.2907 16.7801 21.6158L16.7151 21.6394L16.7017 21.7073L16.0686 24.9086H11.9308L11.2978 21.7438L11.2845 21.677L11.2208 21.6531C10.3315 21.3186 9.50452 20.8377 8.77396 20.2303L8.72196 20.1871L8.65765 20.208L5.5889 21.2071L3.52085 17.702L5.94535 15.5627L5.99703 15.5171L5.98491 15.4493C5.81748 14.5119 5.81748 13.5524 5.98491 12.6151L5.99683 12.5483L5.94665 12.5028L3.52011 10.2993L5.58831 6.79383L8.64714 7.8283L8.7127 7.85047L8.76555 7.80578C9.49305 7.19058 10.3239 6.70925 11.2194 6.38415L11.2845 6.36055L11.2979 6.29272L11.931 3.09133H16.0688L16.7017 6.2562L16.7151 6.32293L16.7788 6.34689C17.668 6.68138 18.495 7.16228 19.2256 7.76967L19.2776 7.8129L19.3419 7.79197L22.4107 6.79284L24.4787 10.298L22.0542 12.4373L22.0025 12.4829L22.0147 12.5507C22.1821 13.488 22.1821 14.4476 22.0147 15.3849L22.0027 15.4516L22.0529 15.4972L24.4795 17.7007L22.4112 21.2062L19.3524 20.1717Z" fill="#F4F4F4" stroke="#F4F4F4" stroke-width="0.245138"/>
<path d="M13.9963 11.4833L13.9963 11.4835L14.0033 11.4833C14.3355 11.4756 14.6657 11.5353 14.9742 11.6589C15.2826 11.7824 15.5627 11.9673 15.7977 12.2022C16.0326 12.4371 16.2175 12.7173 16.341 13.0257C16.4646 13.3341 16.5243 13.6644 16.5166 13.9966L16.5164 13.9966L16.5166 14.0036C16.5243 14.3357 16.4646 14.666 16.341 14.9744C16.2175 15.2828 16.0326 15.563 15.7977 15.7979C15.5627 16.0329 15.2826 16.2177 14.9742 16.3413C14.6657 16.4648 14.3355 16.5245 14.0033 16.5168L14.0033 16.5166L13.9963 16.5168C13.6642 16.5245 13.3339 16.4648 13.0255 16.3413C12.717 16.2177 12.4369 16.0329 12.202 15.7979C11.967 15.563 11.7822 15.2828 11.6586 14.9744C11.5351 14.666 11.4753 14.3357 11.4831 14.0036L11.4832 14.0036L11.4831 13.9966C11.4753 13.6644 11.5351 13.3341 11.6586 13.0257C11.7822 12.7173 11.967 12.4371 12.202 12.2022C12.4369 11.9673 12.717 11.7824 13.0255 11.6589C13.3339 11.5353 13.6642 11.4756 13.9963 11.4833ZM11.6942 17.4507C12.3764 17.9066 13.1785 18.15 13.999 18.1501C14.5455 18.1556 15.0876 18.052 15.5936 17.8454C16.0998 17.6387 16.5596 17.3331 16.9463 16.9465C17.3329 16.5599 17.6385 16.1 17.8452 15.5938C18.0517 15.0879 18.1553 14.5458 18.1499 13.9993C18.1497 13.1788 17.9063 12.3767 17.4505 11.6944C16.9944 11.0119 16.3463 10.48 15.588 10.1659C14.8296 9.8518 13.9952 9.76961 13.1902 9.92974C12.3851 10.0899 11.6457 10.4851 11.0653 11.0655C10.4849 11.6459 10.0896 12.3854 9.9295 13.1904C9.76937 13.9955 9.85155 14.8299 10.1657 15.5882C10.4798 16.3465 11.0117 16.9947 11.6942 17.4507Z" fill="#F4F4F4" stroke="#F4F4F4" stroke-width="0.3"/>
</svg>
