<svg xmlns="http://www.w3.org/2000/svg" width="28" height="28" viewBox="0 0 28 28" fill="none">
<path d="M24.1117 14.6986V13.2922L25.8767 11.7478C26.2021 11.461 26.4156 11.0685 26.4795 10.6395C26.5434 10.2106 26.4537 9.77281 26.2261 9.40364L24.0566 5.72657C23.8954 5.44735 23.6636 5.21544 23.3844 5.05409C23.1053 4.89274 22.7887 4.80763 22.4662 4.8073C22.2664 4.80577 22.0677 4.83682 21.8779 4.89923L19.6441 5.65303C19.2589 5.39591 18.8566 5.16555 18.4399 4.96358L17.971 2.64702C17.887 2.22379 17.6567 1.84361 17.3206 1.57304C16.9845 1.30246 16.5639 1.15873 16.1325 1.16699H11.8303C11.3989 1.15873 10.9783 1.30246 10.6422 1.57304C10.3061 1.84361 10.0758 2.22379 9.99177 2.64702L9.52294 4.96358C9.10372 5.16641 8.69836 5.39673 8.30951 5.65303L6.12165 4.86246C5.92979 4.81247 5.73112 4.79384 5.53332 4.8073C5.2109 4.80763 4.89425 4.89274 4.61512 5.05409C4.33598 5.21544 4.10418 5.44735 3.94298 5.72657L1.7735 9.40364C1.55894 9.77226 1.4792 10.204 1.54796 10.625C1.61672 11.0459 1.82969 11.4298 2.15041 11.711L3.88782 13.3013V14.7078L2.15041 16.2522C1.82063 16.5353 1.60184 16.9261 1.53284 17.3553C1.46384 17.7844 1.54911 18.2241 1.7735 18.5963L3.94298 22.2734C4.10418 22.5526 4.33598 22.7845 4.61512 22.9459C4.89425 23.1072 5.2109 23.1923 5.53332 23.1927C5.73312 23.1942 5.93183 23.1632 6.12165 23.1008L8.35547 22.347C8.74062 22.6041 9.14299 22.8344 9.55971 23.0364L10.0285 25.353C10.1126 25.7762 10.3428 26.1564 10.679 26.4269C11.0151 26.6975 11.4357 26.8413 11.8671 26.833H16.206C16.6374 26.8413 17.058 26.6975 17.3941 26.4269C17.7303 26.1564 17.9605 25.7762 18.0446 25.353L18.5134 23.0364C18.9326 22.8336 19.338 22.6032 19.7268 22.347L21.9515 23.1008C22.1413 23.1632 22.34 23.1942 22.5398 23.1927C22.8622 23.1923 23.1789 23.1072 23.458 22.9459C23.7371 22.7845 23.9689 22.5526 24.1301 22.2734L26.2261 18.5963C26.4406 18.2277 26.5204 17.796 26.4516 17.375C26.3828 16.9541 26.1699 16.5701 25.8492 16.289L24.1117 14.6986ZM22.4662 21.3541L19.3132 20.2878C18.5746 20.9124 17.7311 21.401 16.8219 21.731L16.1693 25.0312H11.8303L11.1776 21.7678C10.2756 21.4285 9.43667 20.9407 8.6956 20.3246L5.53332 21.3541L3.36384 17.6771L5.86425 15.4708C5.69428 14.5192 5.69428 13.5451 5.86425 12.5935L3.36384 10.3229L5.53332 6.64584L8.68641 7.71219C9.42497 7.08763 10.2684 6.59898 11.1776 6.26894L11.8303 2.96876H16.1693L16.8219 6.23217C17.724 6.57148 18.5629 7.05929 19.304 7.67542L22.4662 6.64584L24.6357 10.3229L22.1353 12.5292C22.3053 13.4807 22.3053 14.4549 22.1353 15.4065L24.6357 17.6771L22.4662 21.3541Z" fill="white"/>
<path fill-rule="evenodd" clip-rule="evenodd" d="M21.8779 4.89925C22.0677 4.83684 22.2665 4.80579 22.4663 4.80732C22.7887 4.80765 23.1053 4.89276 23.3845 5.05411C23.6636 5.21546 23.8954 5.44737 24.0566 5.72659L26.2261 9.40367C26.4537 9.77283 26.5435 10.2106 26.4795 10.6395C26.4156 11.0685 26.2021 11.461 25.8768 11.7478L24.1118 13.2922V14.6987L25.8492 16.289C26.1699 16.5702 26.3829 16.9541 26.4516 17.375C26.5204 17.796 26.4406 18.2277 26.2261 18.5964L24.1301 22.2734C23.9689 22.5526 23.7371 22.7846 23.458 22.9459C23.1789 23.1073 22.8622 23.1924 22.5398 23.1927C22.34 23.1942 22.1413 23.1632 21.9515 23.1008L19.7268 22.347C19.338 22.6033 18.9326 22.8336 18.5134 23.0364L18.0446 25.353C17.9605 25.7762 17.7303 26.1564 17.3942 26.427C17.058 26.6975 16.6375 26.8413 16.206 26.833H11.8671C11.4357 26.8413 11.0151 26.6975 10.679 26.427C10.3429 26.1564 10.1126 25.7762 10.0286 25.353L9.55974 23.0364C9.14301 22.8345 8.74065 22.6041 8.35549 22.347L6.12167 23.1008C5.93186 23.1632 5.73314 23.1942 5.53334 23.1927C5.21093 23.1924 4.89427 23.1073 4.61514 22.9459C4.336 22.7846 4.10421 22.5526 3.943 22.2734L1.77353 18.5964C1.54913 18.2241 1.46386 17.7844 1.53286 17.3553C1.60186 16.9262 1.82066 16.5354 2.15043 16.2522L3.88785 14.7078V13.3014L2.15043 11.711C1.82972 11.4299 1.61674 11.0459 1.54798 10.625C1.47922 10.204 1.55896 9.77228 1.77353 9.40367L3.943 5.72659C4.10421 5.44737 4.336 5.21546 4.61514 5.05411C4.89427 4.89276 5.21093 4.80765 5.53334 4.80732C5.73114 4.79386 5.92981 4.81249 6.12167 4.86248L8.30953 5.65305C8.69838 5.39675 9.10374 5.16644 9.52296 4.9636L9.99179 2.64704C10.0759 2.22381 10.3061 1.84363 10.6422 1.57306C10.9783 1.30248 11.3989 1.15875 11.8303 1.16702H16.1325C16.5639 1.15875 16.9845 1.30248 17.3206 1.57306C17.6567 1.84363 17.887 2.22381 17.971 2.64704L18.4399 4.9636C18.8566 5.16557 19.259 5.39593 19.6441 5.65305L21.8779 4.89925ZM19.6791 5.38252L21.8014 4.66637C22.0162 4.59573 22.2412 4.56054 22.4673 4.56218C22.8324 4.5627 23.191 4.65915 23.5071 4.84188C23.8231 5.02453 24.0856 5.28698 24.2683 5.60295C24.2685 5.60331 24.2687 5.60366 24.2689 5.60402L26.436 9.27708C26.693 9.69503 26.7943 10.1903 26.722 10.6757C26.6496 11.1618 26.4076 11.6067 26.0388 11.9317L24.3569 13.4034V14.5907L26.0128 16.1065C26.3752 16.425 26.6158 16.8594 26.6936 17.3355C26.7714 17.8122 26.6812 18.3012 26.4385 18.7187C26.4383 18.7191 26.4381 18.7194 26.4379 18.7197L24.3424 22.396C24.1597 22.7124 23.897 22.9753 23.5807 23.1581C23.2646 23.3409 22.906 23.4373 22.5409 23.4378C22.3147 23.4395 22.0898 23.4043 21.8749 23.3336L21.8728 23.333L19.7609 22.6173C19.4281 22.8314 19.0839 23.027 18.7297 23.2033L18.285 25.4007C18.285 25.401 18.2851 25.4005 18.285 25.4007C18.1896 25.8801 17.9286 26.3114 17.5479 26.6179C17.1676 26.9241 16.6919 27.0869 16.2038 27.0781H11.8693C11.3813 27.0869 10.9056 26.9241 10.5253 26.6179C10.1445 26.3114 9.88364 25.8808 9.78826 25.4014C9.78821 25.4012 9.7883 25.4017 9.78826 25.4014L9.34337 23.2032C8.99157 23.0275 8.65006 22.832 8.3205 22.6175L6.19824 23.3337C5.9834 23.4043 5.75851 23.4395 5.53237 23.4378C5.16722 23.4373 4.8086 23.3409 4.49246 23.1581C4.17644 22.9755 3.91396 22.713 3.73129 22.397C3.73109 22.3967 3.7309 22.3963 3.73071 22.396L1.56359 18.7229C1.56337 18.7226 1.56316 18.7222 1.56295 18.7219C1.30911 18.3002 1.2127 17.8023 1.29083 17.3164C1.36891 16.8307 1.61627 16.3884 1.98909 16.0676L3.64271 14.5978V13.4093L1.98677 11.8936C1.62444 11.575 1.38383 11.1407 1.30605 10.6645C1.22812 10.1874 1.31849 9.69811 1.56167 9.28034L1.56239 9.2791L3.73071 5.60402C3.7309 5.60368 3.7311 5.60333 3.7313 5.60299C3.91398 5.287 4.17645 5.02454 4.49246 4.84188C4.80644 4.66038 5.16232 4.56401 5.52489 4.56221C5.74636 4.54802 5.96869 4.5693 6.18348 4.62526L6.19438 4.6281L8.27807 5.38103C8.61001 5.16764 8.95338 4.97257 9.30663 4.79671L9.75135 2.59928C9.75139 2.59908 9.75131 2.59949 9.75135 2.59928C9.84672 2.11987 10.1077 1.68863 10.4885 1.3821C10.8688 1.07596 11.3445 0.913091 11.8326 0.921877H16.1302C16.6183 0.913091 17.094 1.07596 17.4743 1.3821C17.8551 1.68863 18.116 2.11926 18.2114 2.59867C18.2114 2.59887 18.2113 2.59846 18.2114 2.59867L18.6562 4.79684C19.008 4.97249 19.3495 5.16804 19.6791 5.38252ZM19.3132 20.2878L22.4663 21.3542L24.6357 17.6771L22.1353 15.4065C22.3053 14.4549 22.3053 13.4808 22.1353 12.5292L24.6357 10.3229L22.4663 6.64586L19.304 7.67544C18.5629 7.05931 17.724 6.5715 16.822 6.23219L16.1693 2.96878H11.8303L11.1776 6.26896C10.2685 6.599 9.42499 7.08765 8.68643 7.71221L5.53334 6.64586L3.36386 10.3229L5.86427 12.5935C5.6943 13.5451 5.6943 14.5193 5.86427 15.4708L3.36386 17.6771L5.53334 21.3542L8.69562 20.3246C9.43669 20.9407 10.2756 21.4285 11.1776 21.7678L11.8303 25.0312H16.1693L16.822 21.7311C17.7311 21.401 18.5746 20.9124 19.3132 20.2878ZM15.9679 24.7861L16.6083 21.5478L16.7383 21.5006C17.6203 21.1805 18.4385 20.7065 19.1549 20.1006L19.2606 20.0112L22.3563 21.0582L24.3232 17.7244L21.8702 15.4968L21.894 15.3634C22.0589 14.4403 22.0589 13.4953 21.894 12.5723L21.8698 12.4366L24.3217 10.2731L22.3551 6.93986L19.2513 7.95041L19.1473 7.86394C18.4272 7.26529 17.6121 6.79131 16.7357 6.46163L16.6083 6.41372L15.9683 3.21392H12.0317L11.3913 6.45219L11.2613 6.49939C10.3793 6.81954 9.56115 7.29355 8.84472 7.89939L8.73902 7.98878L5.64333 6.94184L3.6764 10.2756L6.12943 12.5032L6.10559 12.6366C5.94071 13.5597 5.94071 14.5047 6.10559 15.4277L6.12983 15.5634L3.67789 17.7269L5.6445 21.0602L8.74834 20.0496L8.85234 20.1361C9.57239 20.7347 10.3875 21.2087 11.264 21.5384L11.3913 21.5863L12.0313 24.7861H15.9679Z" fill="#101010"/>
<path d="M13.9963 11.4833L13.9963 11.4835L14.0033 11.4833C14.3354 11.4756 14.6657 11.5353 14.9741 11.6589C15.2826 11.7824 15.5627 11.9673 15.7976 12.2022C16.0326 12.4371 16.2174 12.7173 16.341 13.0257C16.4645 13.3341 16.5243 13.6644 16.5165 13.9966L16.5164 13.9966L16.5165 14.0036C16.5243 14.3357 16.4645 14.666 16.341 14.9744C16.2174 15.2828 16.0326 15.563 15.7976 15.7979C15.5627 16.0329 15.2826 16.2177 14.9741 16.3413C14.6657 16.4648 14.3354 16.5245 14.0033 16.5168L14.0033 16.5166L13.9963 16.5168C13.6641 16.5245 13.3339 16.4648 13.0254 16.3413C12.717 16.2177 12.4369 16.0329 12.2019 15.7979C11.967 15.563 11.7821 15.2828 11.6586 14.9744C11.535 14.666 11.4753 14.3357 11.483 14.0036L11.4832 14.0036L11.483 13.9966C11.4753 13.6644 11.535 13.3341 11.6586 13.0257C11.7821 12.7173 11.967 12.4371 12.2019 12.2022C12.4369 11.9673 12.717 11.7824 13.0254 11.6589C13.3339 11.5353 13.6641 11.4756 13.9963 11.4833ZM11.6941 17.4507C12.3764 17.9066 13.1785 18.15 13.999 18.1501C14.5455 18.1556 15.0876 18.052 15.5935 17.8454C16.0997 17.6387 16.5596 17.3331 16.9462 16.9465C17.3329 16.5599 17.6385 16.1 17.8451 15.5938C18.0517 15.0879 18.1553 14.5458 18.1498 13.9993C18.1497 13.1788 17.9063 12.3767 17.4504 11.6944C16.9944 11.0119 16.3463 10.48 15.5879 10.1659C14.8296 9.8518 13.9952 9.76961 13.1901 9.92974C12.3851 10.0899 11.6456 10.4851 11.0653 11.0655C10.4849 11.6459 10.0896 12.3854 9.92947 13.1904C9.76934 13.9955 9.85152 14.8299 10.1656 15.5882C10.4797 16.3465 11.0117 16.9947 11.6941 17.4507Z" fill="#F4F4F4" stroke="#F4F4F4" stroke-width="0.3"/>
</svg>