<svg width="1024" height="1024" viewBox="0 0 1024 1024" fill="none" xmlns="http://www.w3.org/2000/svg">
<path d="M861.189 0H162.811C72.8929 0 0 71.4652 0 159.622V864.378C0 952.535 72.8929 1024 162.811 1024H861.189C951.107 1024 1024 952.535 1024 864.378V159.622C1024 71.4652 951.107 0 861.189 0Z" fill="#1A1A1A"/>
<path d="M353.444 407.082L322.634 495.674L347.368 504.096L406.429 331.709H562.611V684.266H440.757V565.61L404.617 684.266H323.381L287.24 565.61V684.266H164V331.709H332.336L353.338 407.082H353.444Z" fill="#FCFCFC"/>
<path d="M714.636 704.094C691.609 704.094 670.713 691.514 659.519 672.218C647.579 684.691 630.841 692.047 613.251 692.047C602.27 692.047 591.396 689.168 581.801 683.731C563.678 673.39 551.738 654.734 549.925 633.838C549.286 626.056 549.925 618.273 552.057 610.917H551.418C534.147 610.917 517.409 603.775 505.363 591.301C503.87 589.809 502.591 588.21 501.311 586.611C496.088 579.894 492.25 572.325 490.011 564.009C485.533 547.592 487.665 530.428 496.088 515.609C501.738 505.694 509.84 497.592 519.542 492.048C518.689 491.195 517.729 490.343 516.983 489.383L514.957 487.144L513.252 485.012C509.414 480.002 506.535 474.778 504.296 469.234L503.763 467.848C497.367 449.938 498.966 430.535 508.241 414.33C511.972 407.827 516.77 402.07 522.42 397.273C533.934 387.571 548.539 382.241 563.571 382.241C569.435 382.241 575.298 383.094 580.842 384.693C580.629 356.442 599.285 330.429 627.75 322.647C633.293 321.154 638.944 320.408 644.594 320.408C667.622 320.408 688.517 332.988 699.711 352.284C711.545 339.811 728.282 332.561 745.873 332.561C752.269 332.561 758.666 333.521 764.742 335.44C769.113 336.826 773.484 338.638 777.429 340.983C786.171 345.994 793.527 352.817 799.071 361.346C809.305 376.911 812.184 395.994 807.173 413.691C807.386 413.691 807.599 413.691 807.813 413.691C836.49 413.691 861.757 432.987 869.219 460.599C877.002 489.063 864.102 518.381 839.689 532.56C847.684 540.129 853.548 549.724 856.746 560.491C861.863 577.336 859.838 595.139 851.096 610.384C839.795 630.214 818.58 642.474 795.659 642.474C789.796 642.474 783.932 641.621 778.282 640.022C778.388 651.216 775.51 662.196 769.86 672.111C761.438 686.93 747.685 697.484 731.267 701.962C725.724 703.454 720.073 704.2 714.423 704.2L714.636 704.094Z" fill="#F8E349"/>
<path d="M644.595 331.495C667.729 331.495 688.837 346.846 695.234 370.194L696.833 376.057L700.245 370.087C709.946 353.136 727.643 343.648 745.873 343.648C751.097 343.648 756.321 344.394 761.438 345.993C765.063 347.059 768.474 348.552 771.886 350.578C779.348 354.842 785.319 360.599 789.689 367.315C798.858 381.174 801.097 399.085 794.807 415.076C793.847 417.528 792.675 419.98 791.289 422.432L787.984 428.189L793.741 426.59C798.325 425.311 803.016 424.671 807.6 424.671C830.734 424.671 851.843 440.023 858.239 463.37C865.915 491.408 849.391 520.193 821.352 527.868L815.489 529.468L821.459 532.879C833.719 539.809 842.035 551.003 845.766 563.476C849.817 576.802 848.538 591.621 841.182 604.627C831.48 621.578 813.783 631.066 795.553 631.066C786.704 631.066 777.643 628.827 769.327 624.03L763.57 620.725L765.169 626.482C772.845 654.52 756.321 683.304 728.283 690.98C723.699 692.26 719.008 692.899 714.424 692.899C691.289 692.899 670.181 677.548 663.784 654.2L662.185 648.443L658.88 654.307C649.072 671.364 631.269 680.959 613.038 680.959C604.19 680.959 595.341 678.72 587.132 674.029C571.567 665.181 562.292 649.509 560.907 632.878C560.054 622.537 562.186 611.876 567.73 602.175L571.141 596.311L565.278 597.911C560.693 599.19 556.002 599.83 551.418 599.83C536.919 599.83 523.274 593.859 513.465 583.625C512.293 582.452 511.227 581.066 510.161 579.787C505.896 574.457 502.698 568.167 500.779 561.13C493.103 533.092 509.628 504.308 537.666 496.632L543.423 495.033L538.199 492.048C538.199 492.048 537.772 491.835 537.453 491.621C532.762 488.956 528.604 485.651 525.086 481.813C525.086 481.813 525.086 481.813 524.979 481.707C524.446 481.174 523.913 480.534 523.487 480.001C522.954 479.468 522.527 478.828 522.101 478.295C522.101 478.295 521.994 478.189 521.888 478.082C518.903 474.137 516.451 469.873 514.745 465.289C514.745 465.076 514.638 464.862 514.532 464.756C514.425 464.436 514.318 464.223 514.212 463.903C509.201 449.937 510.054 433.946 518.05 420.087C521.141 414.543 525.192 409.852 529.777 406.014C539.265 397.912 551.418 393.648 563.785 393.648C572.634 393.648 581.589 395.886 589.798 400.577C590.011 400.684 590.224 400.897 590.437 401.004L595.661 403.989L594.062 398.125C586.386 370.087 602.911 341.303 630.949 333.627C635.533 332.347 640.224 331.708 644.808 331.708M644.595 309.107C637.985 309.107 631.269 309.959 624.872 311.772C595.981 319.661 575.619 343.648 570.821 371.366C568.476 371.153 566.024 371.046 563.572 371.046C545.875 371.046 528.604 377.336 515.171 388.744C508.455 394.394 502.911 401.11 498.54 408.786C487.666 427.869 485.641 450.683 493.103 471.259L493.53 472.538L493.956 473.498C496.195 479.255 499.286 484.905 503.018 490.022C496.408 495.566 490.864 502.389 486.387 510.065C476.472 527.442 473.914 547.698 479.137 566.994C481.803 576.695 486.28 585.651 492.464 593.54C493.956 595.459 495.555 597.271 497.261 599.083C508.348 610.704 523.06 618.38 538.732 621.151C538.305 625.736 538.305 630.32 538.732 634.904C540.864 659.424 554.83 681.385 576.152 693.539C587.452 699.935 600.245 703.347 613.145 703.347C629.35 703.347 644.808 698.123 657.494 688.848C671.46 705.266 692.142 715.394 714.637 715.394C721.247 715.394 727.963 714.541 734.359 712.729C753.656 707.505 769.754 695.031 779.668 677.654C784.039 669.978 787.024 661.663 788.517 653.241C790.969 653.454 793.314 653.56 795.766 653.56C822.632 653.56 847.578 639.062 860.904 615.821C871.032 598.124 873.484 576.695 867.514 557.079C865.062 548.87 861.224 541.195 856.32 534.478C862.93 528.935 868.474 522.112 872.951 514.436C882.866 497.058 885.424 476.803 880.201 457.506C872.418 429.148 848.858 408.253 820.606 403.349C822.205 386.505 818.154 369.447 808.666 354.949C802.269 345.14 793.421 336.932 783.293 331.068C778.602 328.403 773.592 326.164 768.368 324.565C761.225 322.326 753.762 321.153 746.193 321.153C730.095 321.153 714.637 326.377 702.057 335.546C688.091 319.128 667.409 309 644.914 309L644.595 309.107Z" fill="#1A1A1A"/>
<path d="M622.206 592.261L619.115 570.086C627.856 568.913 636.172 566.888 643.741 564.223L651.204 585.331C642.142 588.529 632.334 590.875 622.1 592.261H622.206ZM672.526 575.63L661.332 556.227C669.541 551.43 677.11 545.459 683.72 538.53L700.031 553.882C691.928 562.517 682.653 569.873 672.526 575.736V575.63ZM714.316 535.332L695.447 523.178C700.564 515.289 704.828 506.334 708.346 496.739L729.455 504.308C725.404 515.502 720.393 525.95 714.316 535.332ZM735.745 482.453L713.89 477.549C717.515 460.918 717.621 448.658 717.621 448.232H740.009C740.009 449.724 739.903 463.797 735.745 482.453Z" fill="#1A1A1A"/>
</svg>
